<svg width="496" height="111" viewBox="0 0 496 111" fill="none" xmlns="http://www.w3.org/2000/svg">
<rect y="0.0223389" width="496" height="110" rx="16" fill="white"/>
<rect x="16" y="16.0223" width="40" height="40" rx="10" fill="#F3F4F6"/>
<path fill-rule="evenodd" clip-rule="evenodd" d="M36 26.2723C30.6152 26.2723 26.25 30.6376 26.25 36.0223C26.25 41.4071 30.6152 45.7723 36 45.7723C41.3848 45.7723 45.75 41.4071 45.75 36.0223C45.75 30.6376 41.3848 26.2723 36 26.2723ZM33.375 32.2723C32.8343 32.2723 32.5467 32.6911 32.439 32.9066C32.3089 33.1669 32.25 33.474 32.25 33.7723C32.25 34.0706 32.3089 34.3778 32.439 34.6381C32.5467 34.8535 32.8343 35.2723 33.375 35.2723C33.9157 35.2723 34.2033 34.8535 34.311 34.6381C34.4411 34.3778 34.5 34.0706 34.5 33.7723C34.5 33.474 34.4411 33.1669 34.311 32.9066C34.2033 32.6911 33.9157 32.2723 33.375 32.2723ZM37.689 32.9066C37.7967 32.6911 38.0843 32.2723 38.625 32.2723C39.1657 32.2723 39.4533 32.6911 39.561 32.9066C39.6911 33.1669 39.75 33.474 39.75 33.7723C39.75 34.0706 39.6911 34.3778 39.561 34.6381C39.4533 34.8535 39.1657 35.2723 38.625 35.2723C38.0843 35.2723 37.7967 34.8535 37.689 34.6381C37.5589 34.3778 37.5 34.0706 37.5 33.7723C37.5 33.474 37.5589 33.1669 37.689 32.9066ZM33.3487 40.8706C33.0558 41.1635 32.5809 41.1635 32.288 40.8706C31.9951 40.5777 31.9951 40.1028 32.288 39.8099C33.3176 38.7803 34.6699 38.2676 36.0184 38.2723C37.3548 38.2768 38.6923 38.7895 39.7126 39.8099C40.0055 40.1028 40.0055 40.5777 39.7126 40.8706C39.4198 41.1635 38.9449 41.1635 38.652 40.8706C37.9229 40.1415 36.9698 39.7755 36.0132 39.7722C35.048 39.7689 34.0843 40.1349 33.3487 40.8706Z" fill="#485066"/>
<path d="M72.8011 25.386C72.7415 24.8822 72.4995 24.4911 72.0753 24.2127C71.651 23.9343 71.1307 23.7951 70.5142 23.7951C70.0634 23.7951 69.669 23.868 69.331 24.0138C68.9962 24.1596 68.7344 24.3602 68.5455 24.6154C68.3598 24.8706 68.267 25.1606 68.267 25.4854C68.267 25.7572 68.3317 25.9909 68.4609 26.1864C68.5935 26.3786 68.7625 26.5394 68.968 26.6686C69.1735 26.7946 69.389 26.899 69.6143 26.9819C69.8397 27.0614 70.0469 27.126 70.2358 27.1757L71.2699 27.4542C71.535 27.5238 71.83 27.6199 72.1548 27.7425C72.483 27.8651 72.7962 28.0325 73.0945 28.2446C73.3961 28.4534 73.6446 28.7219 73.8402 29.05C74.0357 29.3782 74.1335 29.7809 74.1335 30.2581C74.1335 30.8083 73.9893 31.3055 73.701 31.7496C73.416 32.1937 72.9983 32.5467 72.4482 32.8086C71.9013 33.0704 71.2367 33.2013 70.4545 33.2013C69.7254 33.2013 69.094 33.0837 68.5604 32.8483C68.0301 32.613 67.6125 32.2849 67.3075 31.864C67.0059 31.443 66.8352 30.9542 66.7955 30.3973H68.0682C68.1013 30.7818 68.2306 31.1 68.456 31.3519C68.6847 31.6005 68.973 31.7861 69.321 31.9087C69.6723 32.028 70.0502 32.0877 70.4545 32.0877C70.9252 32.0877 71.3478 32.0114 71.7223 31.859C72.0968 31.7032 72.3935 31.4878 72.6122 31.2127C72.831 30.9343 72.9403 30.6095 72.9403 30.2382C72.9403 29.9002 72.8459 29.6251 72.657 29.413C72.468 29.2008 72.2195 29.0285 71.9112 28.8959C71.603 28.7633 71.2699 28.6473 70.9119 28.5479L69.6591 28.19C68.8636 27.9613 68.2339 27.6348 67.7699 27.2105C67.3059 26.7863 67.0739 26.2311 67.0739 25.5451C67.0739 24.975 67.228 24.4778 67.5362 24.0536C67.8478 23.626 68.2654 23.2946 68.7891 23.0593C69.3161 22.8206 69.9044 22.7013 70.554 22.7013C71.2102 22.7013 71.7936 22.819 72.304 23.0543C72.8144 23.2863 73.2188 23.6045 73.517 24.0088C73.8187 24.4132 73.9777 24.8722 73.9943 25.386H72.8011ZM79.1039 33.1814C78.4145 33.1814 77.8096 33.0174 77.2892 32.6892C76.7722 32.3611 76.3678 31.9021 76.0762 31.3121C75.7878 30.7221 75.6436 30.0328 75.6436 29.2439C75.6436 28.4485 75.7878 27.7541 76.0762 27.1608C76.3678 26.5676 76.7722 26.1069 77.2892 25.7787C77.8096 25.4506 78.4145 25.2865 79.1039 25.2865C79.7933 25.2865 80.3965 25.4506 80.9135 25.7787C81.4339 26.1069 81.8382 26.5676 82.1266 27.1608C82.4183 27.7541 82.5641 28.4485 82.5641 29.2439C82.5641 30.0328 82.4183 30.7221 82.1266 31.3121C81.8382 31.9021 81.4339 32.3611 80.9135 32.6892C80.3965 33.0174 79.7933 33.1814 79.1039 33.1814ZM79.1039 32.1275C79.6275 32.1275 80.0584 31.9932 80.3965 31.7248C80.7346 31.4563 80.9848 31.1033 81.1472 30.6658C81.3096 30.2283 81.3908 29.7543 81.3908 29.2439C81.3908 28.7335 81.3096 28.2579 81.1472 27.8171C80.9848 27.3763 80.7346 27.02 80.3965 26.7482C80.0584 26.4764 79.6275 26.3405 79.1039 26.3405C78.5802 26.3405 78.1493 26.4764 77.8113 26.7482C77.4732 27.02 77.223 27.3763 77.0605 27.8171C76.8981 28.2579 76.8169 28.7335 76.8169 29.2439C76.8169 29.7543 76.8981 30.2283 77.0605 30.6658C77.223 31.1033 77.4732 31.4563 77.8113 31.7248C78.1493 31.9932 78.5802 32.1275 79.1039 32.1275ZM84.3551 33.0223V25.386H85.4886V26.5394H85.5682C85.7074 26.1615 85.9593 25.855 86.3239 25.6196C86.6884 25.3843 87.0994 25.2667 87.5568 25.2667C87.643 25.2667 87.7507 25.2683 87.88 25.2716C88.0092 25.2749 88.107 25.2799 88.1733 25.2865V26.4797C88.1335 26.4698 88.0424 26.4549 87.8999 26.435C87.7607 26.4118 87.6132 26.4002 87.4574 26.4002C87.0862 26.4002 86.7547 26.4781 86.4631 26.6338C86.1747 26.7863 85.946 26.9984 85.777 27.2702C85.6113 27.5387 85.5284 27.8453 85.5284 28.19V33.0223H84.3551ZM89.5641 33.0223V25.386H90.6976V26.5394H90.7772C90.9164 26.1615 91.1683 25.855 91.5328 25.6196C91.8974 25.3843 92.3084 25.2667 92.7658 25.2667C92.852 25.2667 92.9597 25.2683 93.089 25.2716C93.2182 25.2749 93.316 25.2799 93.3823 25.2865V26.4797C93.3425 26.4698 93.2514 26.4549 93.1088 26.435C92.9696 26.4118 92.8221 26.4002 92.6664 26.4002C92.2952 26.4002 91.9637 26.4781 91.6721 26.6338C91.3837 26.7863 91.155 26.9984 90.986 27.2702C90.8203 27.5387 90.7374 27.8453 90.7374 28.19V33.0223H89.5641ZM95.7612 35.886C95.5623 35.886 95.385 35.8694 95.2292 35.8363C95.0734 35.8064 94.9657 35.7766 94.9061 35.7468L95.2044 34.7127C95.4894 34.7856 95.7413 34.8121 95.96 34.7922C96.1788 34.7723 96.3727 34.6746 96.5417 34.4989C96.7141 34.3266 96.8715 34.0465 97.014 33.6587L97.2328 33.0621L94.4089 25.386H95.6816L97.7896 31.4712H97.8691L99.9771 25.386H101.25L98.0083 34.136C97.8625 34.5304 97.6819 34.8569 97.4664 35.1154C97.251 35.3772 97.0008 35.5711 96.7157 35.6971C96.434 35.823 96.1158 35.886 95.7612 35.886ZM104.07 31.6303L103.99 32.1672C103.934 32.5451 103.848 32.9494 103.732 33.3803C103.619 33.8112 103.502 34.2172 103.379 34.5983C103.256 34.9795 103.155 35.2828 103.076 35.5081H102.181C102.224 35.296 102.28 35.0159 102.35 34.6679C102.419 34.3199 102.489 33.9305 102.559 33.4996C102.632 33.0721 102.691 32.6346 102.738 32.1871L102.797 31.6303H104.07ZM111.911 33.0223L109.585 25.386H110.818L112.468 31.2326H112.548L114.178 25.386H115.431L117.042 31.2127H117.122L118.772 25.386H120.005L117.678 33.0223H116.525L114.855 27.1559H114.735L113.065 33.0223H111.911ZM124.498 33.1814C123.762 33.1814 123.128 33.019 122.594 32.6942C122.064 32.3661 121.654 31.9087 121.366 31.3221C121.081 30.7321 120.939 30.046 120.939 29.2638C120.939 28.4816 121.081 27.7922 121.366 27.1956C121.654 26.5957 122.056 26.1284 122.569 25.7936C123.086 25.4556 123.69 25.2865 124.379 25.2865C124.777 25.2865 125.169 25.3528 125.557 25.4854C125.945 25.618 126.298 25.8334 126.616 26.1317C126.934 26.4267 127.188 26.8178 127.377 27.305C127.566 27.7922 127.66 28.3921 127.66 29.1047V29.6019H121.774V28.5877H126.467C126.467 28.1568 126.381 27.7723 126.208 27.4343C126.039 27.0962 125.797 26.8294 125.483 26.6338C125.171 26.4383 124.803 26.3405 124.379 26.3405C123.912 26.3405 123.507 26.4565 123.166 26.6885C122.828 26.9172 122.568 27.2155 122.385 27.5834C122.203 27.9513 122.112 28.3457 122.112 28.7667V29.4428C122.112 30.0195 122.211 30.5084 122.41 30.9094C122.612 31.3071 122.892 31.6104 123.25 31.8192C123.608 32.0247 124.024 32.1275 124.498 32.1275C124.806 32.1275 125.085 32.0844 125.333 31.9982C125.585 31.9087 125.802 31.7761 125.985 31.6005C126.167 31.4215 126.308 31.1994 126.407 30.9343L127.541 31.2525C127.422 31.6369 127.221 31.975 126.939 32.2667C126.658 32.555 126.31 32.7804 125.895 32.9428C125.481 33.1019 125.015 33.1814 124.498 33.1814ZM136.266 33.1814C135.63 33.1814 135.068 33.0207 134.581 32.6992C134.093 32.3744 133.712 31.917 133.437 31.327C133.162 30.7337 133.025 30.0328 133.025 29.224C133.025 28.422 133.162 27.7259 133.437 27.136C133.712 26.546 134.095 26.0903 134.586 25.7688C135.076 25.4473 135.643 25.2865 136.286 25.2865C136.783 25.2865 137.176 25.3694 137.464 25.5351C137.756 25.6975 137.978 25.8831 138.13 26.0919C138.286 26.2974 138.407 26.4665 138.493 26.599H138.593V22.8405H139.766V33.0223H138.632V31.849H138.493C138.407 31.9882 138.284 32.1639 138.125 32.376C137.966 32.5848 137.739 32.7721 137.444 32.9378C137.149 33.1002 136.757 33.1814 136.266 33.1814ZM136.425 32.1275C136.896 32.1275 137.293 32.0048 137.618 31.7596C137.943 31.511 138.19 31.1679 138.359 30.7304C138.528 30.2896 138.613 29.7809 138.613 29.2042C138.613 28.6341 138.53 28.1353 138.364 27.7077C138.198 27.2768 137.953 26.9421 137.628 26.7034C137.303 26.4615 136.902 26.3405 136.425 26.3405C135.928 26.3405 135.514 26.4681 135.182 26.7233C134.854 26.9752 134.607 27.3183 134.441 27.7525C134.279 28.1833 134.198 28.6672 134.198 29.2042C134.198 29.7477 134.281 30.2416 134.446 30.6857C134.615 31.1265 134.864 31.4778 135.192 31.7397C135.524 31.9982 135.935 32.1275 136.425 32.1275ZM145.18 33.1814C144.491 33.1814 143.886 33.0174 143.365 32.6892C142.848 32.3611 142.444 31.9021 142.152 31.3121C141.864 30.7221 141.72 30.0328 141.72 29.2439C141.72 28.4485 141.864 27.7541 142.152 27.1608C142.444 26.5676 142.848 26.1069 143.365 25.7787C143.886 25.4506 144.491 25.2865 145.18 25.2865C145.869 25.2865 146.473 25.4506 146.99 25.7787C147.51 26.1069 147.914 26.5676 148.203 27.1608C148.494 27.7541 148.64 28.4485 148.64 29.2439C148.64 30.0328 148.494 30.7221 148.203 31.3121C147.914 31.9021 147.51 32.3611 146.99 32.6892C146.473 33.0174 145.869 33.1814 145.18 33.1814ZM145.18 32.1275C145.704 32.1275 146.135 31.9932 146.473 31.7248C146.811 31.4563 147.061 31.1033 147.223 30.6658C147.386 30.2283 147.467 29.7543 147.467 29.2439C147.467 28.7335 147.386 28.2579 147.223 27.8171C147.061 27.3763 146.811 27.02 146.473 26.7482C146.135 26.4764 145.704 26.3405 145.18 26.3405C144.656 26.3405 144.225 26.4764 143.887 26.7482C143.549 27.02 143.299 27.3763 143.137 27.8171C142.974 28.2579 142.893 28.7335 142.893 29.2439C142.893 29.7543 142.974 30.2283 143.137 30.6658C143.299 31.1033 143.549 31.4563 143.887 31.7248C144.225 31.9932 144.656 32.1275 145.18 32.1275ZM151.605 28.4286V33.0223H150.431V25.386H151.565V26.5792H151.664C151.843 26.1914 152.115 25.8798 152.48 25.6445C152.844 25.4059 153.315 25.2865 153.892 25.2865C154.409 25.2865 154.861 25.3926 155.249 25.6047C155.637 25.8135 155.938 26.1317 156.154 26.5593C156.369 26.9835 156.477 27.5204 156.477 28.1701V33.0223H155.303V28.2496C155.303 27.6497 155.148 27.1824 154.836 26.8476C154.525 26.5096 154.097 26.3405 153.553 26.3405C153.179 26.3405 152.844 26.4217 152.549 26.5841C152.258 26.7465 152.027 26.9835 151.858 27.2951C151.689 27.6066 151.605 27.9845 151.605 28.4286ZM159.655 22.8405V23.7354C159.655 24.0072 159.605 24.2972 159.506 24.6054C159.41 24.9104 159.267 25.207 159.078 25.4954C158.893 25.7804 158.667 26.029 158.402 26.2411L157.766 25.724C157.974 25.4257 158.155 25.1159 158.308 24.7944C158.463 24.4695 158.541 24.1232 158.541 23.7553V22.8405H159.655ZM164.731 25.386V26.3803H160.773V25.386H164.731ZM161.927 23.5564H163.1V30.8348C163.1 31.1663 163.148 31.4149 163.244 31.5806C163.344 31.743 163.47 31.8524 163.622 31.9087C163.778 31.9617 163.942 31.9882 164.114 31.9882C164.244 31.9882 164.35 31.9816 164.433 31.9684C164.515 31.9518 164.582 31.9385 164.631 31.9286L164.87 32.9826C164.79 33.0124 164.679 33.0422 164.537 33.0721C164.394 33.1052 164.214 33.1218 163.995 33.1218C163.664 33.1218 163.339 33.0505 163.021 32.908C162.706 32.7655 162.444 32.5484 162.235 32.2567C162.03 31.965 161.927 31.5971 161.927 31.153V23.5564ZM175.246 29.9002V25.386H176.419V33.0223H175.246V31.7297H175.166C174.987 32.1175 174.709 32.4473 174.331 32.7191C173.953 32.9875 173.476 33.1218 172.899 33.1218C172.422 33.1218 171.998 33.0174 171.626 32.8086C171.255 32.5964 170.964 32.2783 170.751 31.854C170.539 31.4265 170.433 30.8879 170.433 30.2382V25.386H171.607V30.1587C171.607 30.7155 171.762 31.1596 172.074 31.4911C172.389 31.8225 172.79 31.9882 173.277 31.9882C173.569 31.9882 173.865 31.9137 174.167 31.7645C174.472 31.6154 174.727 31.3867 174.933 31.0784C175.141 30.7702 175.246 30.3775 175.246 29.9002ZM183.977 27.0962L182.923 27.3945C182.857 27.2188 182.759 27.0481 182.63 26.8824C182.504 26.7134 182.331 26.5742 182.113 26.4648C181.894 26.3554 181.614 26.3007 181.273 26.3007C180.805 26.3007 180.416 26.4085 180.104 26.6239C179.796 26.836 179.642 27.1061 179.642 27.4343C179.642 27.7259 179.748 27.9563 179.96 28.1253C180.172 28.2944 180.504 28.4352 180.954 28.5479L182.088 28.8263C182.771 28.992 183.279 29.2456 183.614 29.587C183.949 29.925 184.116 30.3609 184.116 30.8945C184.116 31.332 183.99 31.7231 183.738 32.0678C183.49 32.4125 183.142 32.6843 182.694 32.8831C182.247 33.082 181.727 33.1814 181.133 33.1814C180.354 33.1814 179.71 33.0124 179.199 32.6743C178.689 32.3363 178.366 31.8424 178.23 31.1928L179.344 30.9144C179.45 31.3254 179.65 31.6336 179.945 31.8391C180.243 32.0446 180.633 32.1473 181.113 32.1473C181.66 32.1473 182.095 32.0313 182.416 31.7993C182.741 31.564 182.903 31.2823 182.903 30.9542C182.903 30.689 182.81 30.4669 182.625 30.288C182.439 30.1057 182.154 29.9698 181.77 29.8803L180.497 29.582C179.798 29.4163 179.284 29.1594 178.956 28.8114C178.631 28.4601 178.469 28.0209 178.469 27.4939C178.469 27.0631 178.59 26.6819 178.831 26.3505C179.077 26.019 179.41 25.7588 179.831 25.5699C180.255 25.381 180.736 25.2865 181.273 25.2865C182.028 25.2865 182.622 25.4523 183.052 25.7837C183.487 26.1151 183.795 26.5526 183.977 27.0962ZM189.084 33.1814C188.348 33.1814 187.714 33.019 187.18 32.6942C186.65 32.3661 186.24 31.9087 185.952 31.3221C185.667 30.7321 185.525 30.046 185.525 29.2638C185.525 28.4816 185.667 27.7922 185.952 27.1956C186.24 26.5957 186.641 26.1284 187.155 25.7936C187.672 25.4556 188.275 25.2865 188.965 25.2865C189.363 25.2865 189.755 25.3528 190.143 25.4854C190.531 25.618 190.884 25.8334 191.202 26.1317C191.52 26.4267 191.774 26.8178 191.963 27.305C192.152 27.7922 192.246 28.3921 192.246 29.1047V29.6019H186.36V28.5877H191.053C191.053 28.1568 190.967 27.7723 190.794 27.4343C190.625 27.0962 190.383 26.8294 190.069 26.6338C189.757 26.4383 189.389 26.3405 188.965 26.3405C188.498 26.3405 188.093 26.4565 187.752 26.6885C187.414 26.9172 187.154 27.2155 186.971 27.5834C186.789 27.9513 186.698 28.3457 186.698 28.7667V29.4428C186.698 30.0195 186.797 30.5084 186.996 30.9094C187.198 31.3071 187.478 31.6104 187.836 31.8192C188.194 32.0247 188.61 32.1275 189.084 32.1275C189.392 32.1275 189.671 32.0844 189.919 31.9982C190.171 31.9087 190.388 31.7761 190.571 31.6005C190.753 31.4215 190.894 31.1994 190.993 30.9343L192.127 31.2525C192.007 31.6369 191.807 31.975 191.525 32.2667C191.243 32.555 190.895 32.7804 190.481 32.9428C190.067 33.1019 189.601 33.1814 189.084 33.1814ZM198.127 33.0223V22.8405H201.687C202.396 22.8405 202.981 22.9632 203.442 23.2084C203.903 23.4504 204.246 23.7768 204.471 24.1878C204.697 24.5955 204.809 25.0479 204.809 25.5451C204.809 25.9826 204.731 26.3438 204.576 26.6289C204.423 26.9139 204.221 27.1393 203.969 27.305C203.721 27.4707 203.45 27.5934 203.159 27.6729V27.7723C203.47 27.7922 203.783 27.9016 204.098 28.1005C204.413 28.2993 204.677 28.5844 204.889 28.9556C205.101 29.3268 205.207 29.7809 205.207 30.3178C205.207 30.8282 205.091 31.2873 204.859 31.6949C204.627 32.1026 204.261 32.4257 203.76 32.6644C203.26 32.903 202.609 33.0223 201.806 33.0223H198.127ZM199.36 31.9286H201.806C202.612 31.9286 203.184 31.7728 203.522 31.4613C203.863 31.1464 204.034 30.7652 204.034 30.3178C204.034 29.9731 203.946 29.6549 203.77 29.3632C203.595 29.0683 203.344 28.8329 203.02 28.6573C202.695 28.4783 202.31 28.3888 201.866 28.3888H199.36V31.9286ZM199.36 27.315H201.647C202.019 27.315 202.353 27.242 202.652 27.0962C202.953 26.9504 203.192 26.7449 203.368 26.4797C203.547 26.2146 203.636 25.903 203.636 25.5451C203.636 25.0976 203.48 24.7181 203.169 24.4066C202.857 24.0917 202.363 23.9343 201.687 23.9343H199.36V27.315ZM210.276 33.1814C209.54 33.1814 208.905 33.019 208.371 32.6942C207.841 32.3661 207.432 31.9087 207.143 31.3221C206.858 30.7321 206.716 30.046 206.716 29.2638C206.716 28.4816 206.858 27.7922 207.143 27.1956C207.432 26.5957 207.833 26.1284 208.347 25.7936C208.864 25.4556 209.467 25.2865 210.156 25.2865C210.554 25.2865 210.947 25.3528 211.335 25.4854C211.722 25.618 212.075 25.8334 212.393 26.1317C212.712 26.4267 212.965 26.8178 213.154 27.305C213.343 27.7922 213.438 28.3921 213.438 29.1047V29.6019H207.551V28.5877H212.244C212.244 28.1568 212.158 27.7723 211.986 27.4343C211.817 27.0962 211.575 26.8294 211.26 26.6338C210.948 26.4383 210.58 26.3405 210.156 26.3405C209.689 26.3405 209.285 26.4565 208.943 26.6885C208.605 26.9172 208.345 27.2155 208.163 27.5834C207.98 27.9513 207.889 28.3457 207.889 28.7667V29.4428C207.889 30.0195 207.989 30.5084 208.188 30.9094C208.39 31.3071 208.67 31.6104 209.028 31.8192C209.386 32.0247 209.802 32.1275 210.276 32.1275C210.584 32.1275 210.862 32.0844 211.111 31.9982C211.363 31.9087 211.58 31.7761 211.762 31.6005C211.944 31.4215 212.085 31.1994 212.185 30.9343L213.318 31.2525C213.199 31.6369 212.998 31.975 212.717 32.2667C212.435 32.555 212.087 32.7804 211.673 32.9428C211.258 33.1019 210.793 33.1814 210.276 33.1814ZM217.469 33.2013C216.986 33.2013 216.546 33.1102 216.152 32.9279C215.758 32.7423 215.444 32.4755 215.212 32.1275C214.98 31.7761 214.864 31.3519 214.864 30.8547C214.864 30.4172 214.951 30.0626 215.123 29.7908C215.295 29.5157 215.526 29.3003 215.814 29.1445C216.102 28.9887 216.42 28.8727 216.768 28.7965C217.12 28.7169 217.473 28.654 217.827 28.6076C218.291 28.5479 218.668 28.5032 218.956 28.4733C219.248 28.4402 219.46 28.3855 219.592 28.3093C219.728 28.233 219.796 28.1005 219.796 27.9115V27.8718C219.796 27.3812 219.662 27.0001 219.393 26.7283C219.128 26.4565 218.726 26.3206 218.185 26.3206C217.625 26.3206 217.186 26.4433 216.868 26.6885C216.55 26.9338 216.326 27.1956 216.197 27.474L215.083 27.0763C215.282 26.6123 215.547 26.251 215.879 25.9925C216.213 25.7307 216.578 25.5484 216.972 25.4456C217.37 25.3396 217.761 25.2865 218.146 25.2865C218.391 25.2865 218.673 25.3164 218.991 25.376C219.312 25.4324 219.622 25.55 219.92 25.729C220.222 25.908 220.472 26.1781 220.671 26.5394C220.87 26.9007 220.969 27.3846 220.969 27.9911V33.0223H219.796V31.9882H219.737C219.657 32.154 219.524 32.3313 219.339 32.5202C219.153 32.7091 218.906 32.8699 218.598 33.0025C218.29 33.135 217.914 33.2013 217.469 33.2013ZM217.648 32.1473C218.112 32.1473 218.504 32.0562 218.822 31.8739C219.143 31.6916 219.385 31.4563 219.548 31.1679C219.713 30.8796 219.796 30.5763 219.796 30.2581V29.1843C219.746 29.2439 219.637 29.2986 219.468 29.3483C219.302 29.3947 219.11 29.4362 218.891 29.4726C218.676 29.5058 218.465 29.5356 218.26 29.5621C218.058 29.5853 217.894 29.6052 217.768 29.6218C217.463 29.6615 217.178 29.7262 216.913 29.8157C216.651 29.9018 216.439 30.0328 216.276 30.2084C216.117 30.3808 216.038 30.6161 216.038 30.9144C216.038 31.3221 216.188 31.6303 216.49 31.8391C216.795 32.0446 217.181 32.1473 217.648 32.1473ZM226.213 33.1814C225.497 33.1814 224.881 33.0124 224.364 32.6743C223.847 32.3363 223.449 31.8706 223.171 31.2773C222.892 30.684 222.753 30.0062 222.753 29.2439C222.753 28.4684 222.896 27.7839 223.181 27.1907C223.469 26.5941 223.87 26.1284 224.384 25.7936C224.901 25.4556 225.504 25.2865 226.193 25.2865C226.73 25.2865 227.214 25.386 227.645 25.5848C228.076 25.7837 228.429 26.0621 228.704 26.4201C228.979 26.778 229.15 27.1956 229.216 27.6729H228.043C227.953 27.3249 227.754 27.0167 227.446 26.7482C227.141 26.4764 226.73 26.3405 226.213 26.3405C225.756 26.3405 225.355 26.4598 225.01 26.6985C224.669 26.9338 224.402 27.2669 224.21 27.6978C224.021 28.1253 223.926 28.6275 223.926 29.2042C223.926 29.7941 224.019 30.3079 224.205 30.7454C224.394 31.1829 224.659 31.5226 225 31.7645C225.345 32.0065 225.749 32.1275 226.213 32.1275C226.518 32.1275 226.795 32.0744 227.044 31.9684C227.292 31.8623 227.503 31.7098 227.675 31.511C227.847 31.3121 227.97 31.0735 228.043 30.7951H229.216C229.15 31.2458 228.986 31.6518 228.724 32.0131C228.465 32.3711 228.122 32.6561 227.695 32.8682C227.271 33.077 226.777 33.1814 226.213 33.1814ZM234.034 33.1814C233.344 33.1814 232.739 33.0174 232.219 32.6892C231.702 32.3611 231.298 31.9021 231.006 31.3121C230.718 30.7221 230.573 30.0328 230.573 29.2439C230.573 28.4485 230.718 27.7541 231.006 27.1608C231.298 26.5676 231.702 26.1069 232.219 25.7787C232.739 25.4506 233.344 25.2865 234.034 25.2865C234.723 25.2865 235.326 25.4506 235.843 25.7787C236.364 26.1069 236.768 26.5676 237.056 27.1608C237.348 27.7541 237.494 28.4485 237.494 29.2439C237.494 30.0328 237.348 30.7221 237.056 31.3121C236.768 31.9021 236.364 32.3611 235.843 32.6892C235.326 33.0174 234.723 33.1814 234.034 33.1814ZM234.034 32.1275C234.557 32.1275 234.988 31.9932 235.326 31.7248C235.664 31.4563 235.914 31.1033 236.077 30.6658C236.239 30.2283 236.32 29.7543 236.32 29.2439C236.32 28.7335 236.239 28.2579 236.077 27.8171C235.914 27.3763 235.664 27.02 235.326 26.7482C234.988 26.4764 234.557 26.3405 234.034 26.3405C233.51 26.3405 233.079 26.4764 232.741 26.7482C232.403 27.02 232.153 27.3763 231.99 27.8171C231.828 28.2579 231.747 28.7335 231.747 29.2439C231.747 29.7543 231.828 30.2283 231.99 30.6658C232.153 31.1033 232.403 31.4563 232.741 31.7248C233.079 31.9932 233.51 32.1275 234.034 32.1275ZM240.458 28.4286V33.0223H239.285V25.386H240.418V26.5792H240.518C240.697 26.1914 240.969 25.8798 241.333 25.6445C241.698 25.4059 242.168 25.2865 242.745 25.2865C243.262 25.2865 243.714 25.3926 244.102 25.6047C244.49 25.8135 244.792 26.1317 245.007 26.5593C245.223 26.9835 245.33 27.5204 245.33 28.1701V33.0223H244.157V28.2496C244.157 27.6497 244.001 27.1824 243.69 26.8476C243.378 26.5096 242.951 26.3405 242.407 26.3405C242.032 26.3405 241.698 26.4217 241.403 26.5841C241.111 26.7465 240.881 26.9835 240.712 27.2951C240.543 27.6066 240.458 27.9845 240.458 28.4286ZM253.659 33.2013C253.175 33.2013 252.736 33.1102 252.341 32.9279C251.947 32.7423 251.634 32.4755 251.402 32.1275C251.17 31.7761 251.054 31.3519 251.054 30.8547C251.054 30.4172 251.14 30.0626 251.312 29.7908C251.485 29.5157 251.715 29.3003 252.003 29.1445C252.292 28.9887 252.61 28.8727 252.958 28.7965C253.309 28.7169 253.662 28.654 254.017 28.6076C254.481 28.5479 254.857 28.5032 255.145 28.4733C255.437 28.4402 255.649 28.3855 255.782 28.3093C255.918 28.233 255.986 28.1005 255.986 27.9115V27.8718C255.986 27.3812 255.851 27.0001 255.583 26.7283C255.318 26.4565 254.915 26.3206 254.375 26.3206C253.815 26.3206 253.376 26.4433 253.057 26.6885C252.739 26.9338 252.515 27.1956 252.386 27.474L251.273 27.0763C251.471 26.6123 251.737 26.251 252.068 25.9925C252.403 25.7307 252.767 25.5484 253.162 25.4456C253.559 25.3396 253.951 25.2865 254.335 25.2865C254.58 25.2865 254.862 25.3164 255.18 25.376C255.502 25.4324 255.812 25.55 256.11 25.729C256.412 25.908 256.662 26.1781 256.861 26.5394C257.059 26.9007 257.159 27.3846 257.159 27.9911V33.0223H255.986V31.9882H255.926C255.846 32.154 255.714 32.3313 255.528 32.5202C255.343 32.7091 255.096 32.8699 254.787 33.0025C254.479 33.135 254.103 33.2013 253.659 33.2013ZM253.838 32.1473C254.302 32.1473 254.693 32.0562 255.011 31.8739C255.333 31.6916 255.575 31.4563 255.737 31.1679C255.903 30.8796 255.986 30.5763 255.986 30.2581V29.1843C255.936 29.2439 255.827 29.2986 255.657 29.3483C255.492 29.3947 255.3 29.4362 255.081 29.4726C254.865 29.5058 254.655 29.5356 254.449 29.5621C254.247 29.5853 254.083 29.6052 253.957 29.6218C253.652 29.6615 253.367 29.7262 253.102 29.8157C252.84 29.9018 252.628 30.0328 252.466 30.2084C252.307 30.3808 252.227 30.6161 252.227 30.9144C252.227 31.3221 252.378 31.6303 252.68 31.8391C252.984 32.0446 253.371 32.1473 253.838 32.1473ZM260.474 28.4286V33.0223H259.3V25.386H260.434V26.5792H260.533C260.712 26.1914 260.984 25.8798 261.349 25.6445C261.713 25.4059 262.184 25.2865 262.761 25.2865C263.278 25.2865 263.73 25.3926 264.118 25.6047C264.506 25.8135 264.807 26.1317 265.023 26.5593C265.238 26.9835 265.346 27.5204 265.346 28.1701V33.0223H264.173V28.2496C264.173 27.6497 264.017 27.1824 263.705 26.8476C263.394 26.5096 262.966 26.3405 262.423 26.3405C262.048 26.3405 261.713 26.4217 261.418 26.5841C261.127 26.7465 260.896 26.9835 260.727 27.2951C260.558 27.6066 260.474 27.9845 260.474 28.4286ZM269.737 33.2013C269.253 33.2013 268.814 33.1102 268.42 32.9279C268.025 32.7423 267.712 32.4755 267.48 32.1275C267.248 31.7761 267.132 31.3519 267.132 30.8547C267.132 30.4172 267.218 30.0626 267.39 29.7908C267.563 29.5157 267.793 29.3003 268.081 29.1445C268.37 28.9887 268.688 28.8727 269.036 28.7965C269.387 28.7169 269.74 28.654 270.095 28.6076C270.559 28.5479 270.935 28.5032 271.224 28.4733C271.515 28.4402 271.727 28.3855 271.86 28.3093C271.996 28.233 272.064 28.1005 272.064 27.9115V27.8718C272.064 27.3812 271.93 27.0001 271.661 26.7283C271.396 26.4565 270.993 26.3206 270.453 26.3206C269.893 26.3206 269.454 26.4433 269.135 26.6885C268.817 26.9338 268.594 27.1956 268.464 27.474L267.351 27.0763C267.55 26.6123 267.815 26.251 268.146 25.9925C268.481 25.7307 268.845 25.5484 269.24 25.4456C269.638 25.3396 270.029 25.2865 270.413 25.2865C270.658 25.2865 270.94 25.3164 271.258 25.376C271.58 25.4324 271.89 25.55 272.188 25.729C272.49 25.908 272.74 26.1781 272.939 26.5394C273.138 26.9007 273.237 27.3846 273.237 27.9911V33.0223H272.064V31.9882H272.004C271.925 32.154 271.792 32.3313 271.606 32.5202C271.421 32.7091 271.174 32.8699 270.866 33.0025C270.557 33.135 270.181 33.2013 269.737 33.2013ZM269.916 32.1473C270.38 32.1473 270.771 32.0562 271.089 31.8739C271.411 31.6916 271.653 31.4563 271.815 31.1679C271.981 30.8796 272.064 30.5763 272.064 30.2581V29.1843C272.014 29.2439 271.905 29.2986 271.736 29.3483C271.57 29.3947 271.378 29.4362 271.159 29.4726C270.943 29.5058 270.733 29.5356 270.528 29.5621C270.325 29.5853 270.161 29.6052 270.035 29.6218C269.73 29.6615 269.445 29.7262 269.18 29.8157C268.918 29.9018 268.706 30.0328 268.544 30.2084C268.385 30.3808 268.305 30.6161 268.305 30.9144C268.305 31.3221 268.456 31.6303 268.758 31.8391C269.063 32.0446 269.449 32.1473 269.916 32.1473ZM276.552 22.8405V33.0223H275.379V22.8405H276.552ZM279.456 35.886C279.258 35.886 279.08 35.8694 278.925 35.8363C278.769 35.8064 278.661 35.7766 278.601 35.7468L278.9 34.7127C279.185 34.7856 279.437 34.8121 279.655 34.7922C279.874 34.7723 280.068 34.6746 280.237 34.4989C280.409 34.3266 280.567 34.0465 280.709 33.6587L280.928 33.0621L278.104 25.386H279.377L281.485 31.4712H281.564L283.672 25.386H284.945L281.704 34.136C281.558 34.5304 281.377 34.8569 281.162 35.1154C280.946 35.3772 280.696 35.5711 280.411 35.6971C280.129 35.823 279.811 35.886 279.456 35.886ZM289.815 25.386V26.3803H285.857V25.386H289.815ZM287.011 23.5564H288.184V30.8348C288.184 31.1663 288.232 31.4149 288.328 31.5806C288.428 31.743 288.554 31.8524 288.706 31.9087C288.862 31.9617 289.026 31.9882 289.198 31.9882C289.328 31.9882 289.434 31.9816 289.517 31.9684C289.599 31.9518 289.666 31.9385 289.715 31.9286L289.954 32.9826C289.874 33.0124 289.763 33.0422 289.621 33.0721C289.478 33.1052 289.298 33.1218 289.079 33.1218C288.748 33.1218 288.423 33.0505 288.105 32.908C287.79 32.7655 287.528 32.5484 287.319 32.2567C287.114 31.965 287.011 31.5971 287.011 31.153V23.5564ZM291.58 33.0223V25.386H292.753V33.0223H291.58ZM292.176 24.1132C291.948 24.1132 291.75 24.0354 291.585 23.8796C291.422 23.7238 291.341 23.5365 291.341 23.3178C291.341 23.099 291.422 22.9118 291.585 22.756C291.75 22.6002 291.948 22.5223 292.176 22.5223C292.405 22.5223 292.601 22.6002 292.763 22.756C292.929 22.9118 293.012 23.099 293.012 23.3178C293.012 23.5365 292.929 23.7238 292.763 23.8796C292.601 24.0354 292.405 24.1132 292.176 24.1132ZM298.004 33.1814C297.288 33.1814 296.672 33.0124 296.155 32.6743C295.638 32.3363 295.24 31.8706 294.962 31.2773C294.683 30.684 294.544 30.0062 294.544 29.2439C294.544 28.4684 294.687 27.7839 294.972 27.1907C295.26 26.5941 295.661 26.1284 296.175 25.7936C296.692 25.4556 297.295 25.2865 297.984 25.2865C298.521 25.2865 299.005 25.386 299.436 25.5848C299.867 25.7837 300.22 26.0621 300.495 26.4201C300.77 26.778 300.941 27.1956 301.007 27.6729H299.834C299.744 27.3249 299.545 27.0167 299.237 26.7482C298.932 26.4764 298.521 26.3405 298.004 26.3405C297.547 26.3405 297.146 26.4598 296.801 26.6985C296.46 26.9338 296.193 27.2669 296.001 27.6978C295.812 28.1253 295.717 28.6275 295.717 29.2042C295.717 29.7941 295.81 30.3079 295.996 30.7454C296.185 31.1829 296.45 31.5226 296.791 31.7645C297.136 32.0065 297.54 32.1275 298.004 32.1275C298.309 32.1275 298.586 32.0744 298.835 31.9684C299.083 31.8623 299.294 31.7098 299.466 31.511C299.638 31.3121 299.761 31.0735 299.834 30.7951H301.007C300.941 31.2458 300.777 31.6518 300.515 32.0131C300.256 32.3711 299.913 32.6561 299.486 32.8682C299.062 33.077 298.568 33.1814 298.004 33.1814ZM308.131 27.0962L307.077 27.3945C307.011 27.2188 306.913 27.0481 306.784 26.8824C306.658 26.7134 306.486 26.5742 306.267 26.4648C306.048 26.3554 305.768 26.3007 305.427 26.3007C304.96 26.3007 304.57 26.4085 304.259 26.6239C303.95 26.836 303.796 27.1061 303.796 27.4343C303.796 27.7259 303.902 27.9563 304.114 28.1253C304.326 28.2944 304.658 28.4352 305.109 28.5479L306.242 28.8263C306.925 28.992 307.434 29.2456 307.768 29.587C308.103 29.925 308.271 30.3609 308.271 30.8945C308.271 31.332 308.145 31.7231 307.893 32.0678C307.644 32.4125 307.296 32.6843 306.849 32.8831C306.401 33.082 305.881 33.1814 305.288 33.1814C304.509 33.1814 303.864 33.0124 303.354 32.6743C302.843 32.3363 302.52 31.8424 302.384 31.1928L303.498 30.9144C303.604 31.3254 303.804 31.6336 304.099 31.8391C304.398 32.0446 304.787 32.1473 305.268 32.1473C305.815 32.1473 306.249 32.0313 306.57 31.7993C306.895 31.564 307.058 31.2823 307.058 30.9542C307.058 30.689 306.965 30.4669 306.779 30.288C306.594 30.1057 306.308 29.9698 305.924 29.8803L304.651 29.582C303.952 29.4163 303.438 29.1594 303.11 28.8114C302.785 28.4601 302.623 28.0209 302.623 27.4939C302.623 27.0631 302.744 26.6819 302.986 26.3505C303.231 26.019 303.564 25.7588 303.985 25.5699C304.409 25.381 304.89 25.2865 305.427 25.2865C306.183 25.2865 306.776 25.4523 307.207 25.7837C307.641 26.1151 307.949 26.5526 308.131 27.0962ZM313.974 33.0223V25.386H315.148V33.0223H313.974ZM314.571 24.1132C314.342 24.1132 314.145 24.0354 313.979 23.8796C313.817 23.7238 313.736 23.5365 313.736 23.3178C313.736 23.099 313.817 22.9118 313.979 22.756C314.145 22.6002 314.342 22.5223 314.571 22.5223C314.8 22.5223 314.995 22.6002 315.157 22.756C315.323 22.9118 315.406 23.099 315.406 23.3178C315.406 23.5365 315.323 23.7238 315.157 23.8796C314.995 24.0354 314.8 24.1132 314.571 24.1132ZM318.47 28.4286V33.0223H317.297V25.386H318.43V26.5792H318.529C318.708 26.1914 318.98 25.8798 319.345 25.6445C319.709 25.4059 320.18 25.2865 320.757 25.2865C321.274 25.2865 321.726 25.3926 322.114 25.6047C322.502 25.8135 322.803 26.1317 323.019 26.5593C323.234 26.9835 323.342 27.5204 323.342 28.1701V33.0223H322.169V28.2496C322.169 27.6497 322.013 27.1824 321.701 26.8476C321.39 26.5096 320.962 26.3405 320.419 26.3405C320.044 26.3405 319.709 26.4217 319.414 26.5841C319.123 26.7465 318.892 26.9835 318.723 27.2951C318.554 27.6066 318.47 27.9845 318.47 28.4286ZM332.526 33.1814C331.836 33.1814 331.231 33.0174 330.711 32.6892C330.194 32.3611 329.79 31.9021 329.498 31.3121C329.21 30.7221 329.066 30.0328 329.066 29.2439C329.066 28.4485 329.21 27.7541 329.498 27.1608C329.79 26.5676 330.194 26.1069 330.711 25.7787C331.231 25.4506 331.836 25.2865 332.526 25.2865C333.215 25.2865 333.818 25.4506 334.335 25.7787C334.856 26.1069 335.26 26.5676 335.548 27.1608C335.84 27.7541 335.986 28.4485 335.986 29.2439C335.986 30.0328 335.84 30.7221 335.548 31.3121C335.26 31.9021 334.856 32.3611 334.335 32.6892C333.818 33.0174 333.215 33.1814 332.526 33.1814ZM332.526 32.1275C333.049 32.1275 333.48 31.9932 333.818 31.7248C334.156 31.4563 334.407 31.1033 334.569 30.6658C334.731 30.2283 334.813 29.7543 334.813 29.2439C334.813 28.7335 334.731 28.2579 334.569 27.8171C334.407 27.3763 334.156 27.02 333.818 26.7482C333.48 26.4764 333.049 26.3405 332.526 26.3405C332.002 26.3405 331.571 26.4764 331.233 26.7482C330.895 27.02 330.645 27.3763 330.482 27.8171C330.32 28.2579 330.239 28.7335 330.239 29.2439C330.239 29.7543 330.32 30.2283 330.482 30.6658C330.645 31.1033 330.895 31.4563 331.233 31.7248C331.571 31.9932 332.002 32.1275 332.526 32.1275ZM342.589 29.9002V25.386H343.763V33.0223H342.589V31.7297H342.51C342.331 32.1175 342.053 32.4473 341.675 32.7191C341.297 32.9875 340.82 33.1218 340.243 33.1218C339.766 33.1218 339.341 33.0174 338.97 32.8086C338.599 32.5964 338.307 32.2783 338.095 31.854C337.883 31.4265 337.777 30.8879 337.777 30.2382V25.386H338.95V30.1587C338.95 30.7155 339.106 31.1596 339.418 31.4911C339.732 31.8225 340.134 31.9882 340.621 31.9882C340.912 31.9882 341.209 31.9137 341.511 31.7645C341.816 31.6154 342.071 31.3867 342.276 31.0784C342.485 30.7702 342.589 30.3775 342.589 29.9002ZM345.912 33.0223V25.386H347.045V26.5394H347.125C347.264 26.1615 347.516 25.855 347.881 25.6196C348.245 25.3843 348.656 25.2667 349.113 25.2667C349.2 25.2667 349.307 25.2683 349.437 25.2716C349.566 25.2749 349.664 25.2799 349.73 25.2865V26.4797C349.69 26.4698 349.599 26.4549 349.456 26.435C349.317 26.4118 349.17 26.4002 349.014 26.4002C348.643 26.4002 348.311 26.4781 348.02 26.6338C347.731 26.7863 347.503 26.9984 347.334 27.2702C347.168 27.5387 347.085 27.8453 347.085 28.19V33.0223H345.912ZM356.788 33.0223L354.462 25.386H355.695L357.345 31.2326H357.425L359.055 25.386H360.308L361.919 31.2127H361.999L363.649 25.386H364.882L362.555 33.0223H361.402L359.732 27.1559H359.612L357.942 33.0223H356.788ZM369.375 33.1814C368.639 33.1814 368.005 33.019 367.471 32.6942C366.941 32.3661 366.531 31.9087 366.243 31.3221C365.958 30.7321 365.816 30.046 365.816 29.2638C365.816 28.4816 365.958 27.7922 366.243 27.1956C366.531 26.5957 366.932 26.1284 367.446 25.7936C367.963 25.4556 368.566 25.2865 369.256 25.2865C369.654 25.2865 370.046 25.3528 370.434 25.4854C370.822 25.618 371.175 25.8334 371.493 26.1317C371.811 26.4267 372.065 26.8178 372.254 27.305C372.443 27.7922 372.537 28.3921 372.537 29.1047V29.6019H366.651V28.5877H371.344C371.344 28.1568 371.258 27.7723 371.085 27.4343C370.916 27.0962 370.674 26.8294 370.36 26.6338C370.048 26.4383 369.68 26.3405 369.256 26.3405C368.789 26.3405 368.384 26.4565 368.043 26.6885C367.705 26.9172 367.445 27.2155 367.262 27.5834C367.08 27.9513 366.989 28.3457 366.989 28.7667V29.4428C366.989 30.0195 367.088 30.5084 367.287 30.9094C367.489 31.3071 367.769 31.6104 368.127 31.8192C368.485 32.0247 368.901 32.1275 369.375 32.1275C369.683 32.1275 369.962 32.0844 370.21 31.9982C370.462 31.9087 370.679 31.7761 370.862 31.6005C371.044 31.4215 371.185 31.1994 371.284 30.9343L372.418 31.2525C372.298 31.6369 372.098 31.975 371.816 32.2667C371.535 32.555 371.186 32.7804 370.772 32.9428C370.358 33.1019 369.892 33.1814 369.375 33.1814ZM374.481 33.0223V22.8405H375.654V26.599H375.754C375.84 26.4665 375.959 26.2974 376.112 26.0919C376.267 25.8831 376.49 25.6975 376.778 25.5351C377.07 25.3694 377.464 25.2865 377.961 25.2865C378.604 25.2865 379.171 25.4473 379.661 25.7688C380.152 26.0903 380.535 26.546 380.81 27.136C381.085 27.7259 381.222 28.422 381.222 29.224C381.222 30.0328 381.085 30.7337 380.81 31.327C380.535 31.917 380.154 32.3744 379.666 32.6992C379.179 33.0207 378.617 33.1814 377.981 33.1814C377.49 33.1814 377.098 33.1002 376.803 32.9378C376.508 32.7721 376.281 32.5848 376.122 32.376C375.963 32.1639 375.84 31.9882 375.754 31.849H375.615V33.0223H374.481ZM375.634 29.2042C375.634 29.7809 375.719 30.2896 375.888 30.7304C376.057 31.1679 376.304 31.511 376.629 31.7596C376.954 32.0048 377.351 32.1275 377.822 32.1275C378.312 32.1275 378.722 31.9982 379.05 31.7397C379.381 31.4778 379.63 31.1265 379.796 30.6857C379.965 30.2416 380.049 29.7477 380.049 29.2042C380.049 28.6672 379.966 28.1833 379.801 27.7525C379.638 27.3183 379.391 26.9752 379.06 26.7233C378.732 26.4681 378.319 26.3405 377.822 26.3405C377.345 26.3405 376.944 26.4615 376.619 26.7034C376.294 26.9421 376.049 27.2768 375.883 27.7077C375.717 28.1353 375.634 28.6341 375.634 29.2042ZM388.426 27.0962L387.372 27.3945C387.306 27.2188 387.208 27.0481 387.079 26.8824C386.953 26.7134 386.781 26.5742 386.562 26.4648C386.343 26.3554 386.063 26.3007 385.722 26.3007C385.254 26.3007 384.865 26.4085 384.553 26.6239C384.245 26.836 384.091 27.1061 384.091 27.4343C384.091 27.7259 384.197 27.9563 384.409 28.1253C384.621 28.2944 384.953 28.4352 385.404 28.5479L386.537 28.8263C387.22 28.992 387.729 29.2456 388.063 29.587C388.398 29.925 388.566 30.3609 388.566 30.8945C388.566 31.332 388.44 31.7231 388.188 32.0678C387.939 32.4125 387.591 32.6843 387.144 32.8831C386.696 33.082 386.176 33.1814 385.583 33.1814C384.804 33.1814 384.159 33.0124 383.649 32.6743C383.138 32.3363 382.815 31.8424 382.679 31.1928L383.793 30.9144C383.899 31.3254 384.099 31.6336 384.394 31.8391C384.693 32.0446 385.082 32.1473 385.563 32.1473C386.11 32.1473 386.544 32.0313 386.865 31.7993C387.19 31.564 387.352 31.2823 387.352 30.9542C387.352 30.689 387.26 30.4669 387.074 30.288C386.888 30.1057 386.603 29.9698 386.219 29.8803L384.946 29.582C384.247 29.4163 383.733 29.1594 383.405 28.8114C383.08 28.4601 382.918 28.0209 382.918 27.4939C382.918 27.0631 383.039 26.6819 383.281 26.3505C383.526 26.019 383.859 25.7588 384.28 25.5699C384.704 25.381 385.185 25.2865 385.722 25.2865C386.477 25.2865 387.071 25.4523 387.502 25.7837C387.936 26.1151 388.244 26.5526 388.426 27.0962ZM390.332 33.0223V25.386H391.505V33.0223H390.332ZM390.928 24.1132C390.7 24.1132 390.502 24.0354 390.337 23.8796C390.174 23.7238 390.093 23.5365 390.093 23.3178C390.093 23.099 390.174 22.9118 390.337 22.756C390.502 22.6002 390.7 22.5223 390.928 22.5223C391.157 22.5223 391.353 22.6002 391.515 22.756C391.681 22.9118 391.763 23.099 391.763 23.3178C391.763 23.5365 391.681 23.7238 391.515 23.8796C391.353 24.0354 391.157 24.1132 390.928 24.1132ZM396.975 25.386V26.3803H393.018V25.386H396.975ZM394.171 23.5564H395.344V30.8348C395.344 31.1663 395.392 31.4149 395.488 31.5806C395.588 31.743 395.714 31.8524 395.866 31.9087C396.022 31.9617 396.186 31.9882 396.358 31.9882C396.488 31.9882 396.594 31.9816 396.677 31.9684C396.76 31.9518 396.826 31.9385 396.876 31.9286L397.114 32.9826C397.035 33.0124 396.924 33.0422 396.781 33.0721C396.639 33.1052 396.458 33.1218 396.239 33.1218C395.908 33.1218 395.583 33.0505 395.265 32.908C394.95 32.7655 394.688 32.5484 394.479 32.2567C394.274 31.965 394.171 31.5971 394.171 31.153V23.5564ZM401.86 33.1814C401.124 33.1814 400.489 33.019 399.955 32.6942C399.425 32.3661 399.016 31.9087 398.727 31.3221C398.442 30.7321 398.3 30.046 398.3 29.2638C398.3 28.4816 398.442 27.7922 398.727 27.1956C399.016 26.5957 399.417 26.1284 399.931 25.7936C400.448 25.4556 401.051 25.2865 401.74 25.2865C402.138 25.2865 402.531 25.3528 402.919 25.4854C403.306 25.618 403.659 25.8334 403.977 26.1317C404.296 26.4267 404.549 26.8178 404.738 27.305C404.927 27.7922 405.021 28.3921 405.021 29.1047V29.6019H399.135V28.5877H403.828C403.828 28.1568 403.742 27.7723 403.57 27.4343C403.401 27.0962 403.159 26.8294 402.844 26.6338C402.532 26.4383 402.164 26.3405 401.74 26.3405C401.273 26.3405 400.869 26.4565 400.527 26.6885C400.189 26.9172 399.929 27.2155 399.747 27.5834C399.564 27.9513 399.473 28.3457 399.473 28.7667V29.4428C399.473 30.0195 399.573 30.5084 399.771 30.9094C399.974 31.3071 400.254 31.6104 400.612 31.8192C400.97 32.0247 401.386 32.1275 401.86 32.1275C402.168 32.1275 402.446 32.0844 402.695 31.9982C402.947 31.9087 403.164 31.7761 403.346 31.6005C403.528 31.4215 403.669 31.1994 403.769 30.9343L404.902 31.2525C404.783 31.6369 404.582 31.975 404.301 32.2667C404.019 32.555 403.671 32.7804 403.257 32.9428C402.842 33.1019 402.377 33.1814 401.86 33.1814ZM416.153 27.0962L415.099 27.3945C415.033 27.2188 414.935 27.0481 414.806 26.8824C414.68 26.7134 414.507 26.5742 414.289 26.4648C414.07 26.3554 413.79 26.3007 413.448 26.3007C412.981 26.3007 412.592 26.4085 412.28 26.6239C411.972 26.836 411.818 27.1061 411.818 27.4343C411.818 27.7259 411.924 27.9563 412.136 28.1253C412.348 28.2944 412.679 28.4352 413.13 28.5479L414.264 28.8263C414.946 28.992 415.455 29.2456 415.79 29.587C416.125 29.925 416.292 30.3609 416.292 30.8945C416.292 31.332 416.166 31.7231 415.914 32.0678C415.666 32.4125 415.318 32.6843 414.87 32.8831C414.423 33.082 413.902 33.1814 413.309 33.1814C412.53 33.1814 411.886 33.0124 411.375 32.6743C410.865 32.3363 410.542 31.8424 410.406 31.1928L411.519 30.9144C411.625 31.3254 411.826 31.6336 412.121 31.8391C412.419 32.0446 412.809 32.1473 413.289 32.1473C413.836 32.1473 414.27 32.0313 414.592 31.7993C414.917 31.564 415.079 31.2823 415.079 30.9542C415.079 30.689 414.986 30.4669 414.801 30.288C414.615 30.1057 414.33 29.9698 413.945 29.8803L412.673 29.582C411.973 29.4163 411.46 29.1594 411.132 28.8114C410.807 28.4601 410.644 28.0209 410.644 27.4939C410.644 27.0631 410.765 26.6819 411.007 26.3505C411.253 26.019 411.586 25.7588 412.007 25.5699C412.431 25.381 412.911 25.2865 413.448 25.2865C414.204 25.2865 414.797 25.4523 415.228 25.7837C415.662 26.1151 415.971 26.5526 416.153 27.0962ZM421.161 33.1814C420.471 33.1814 419.866 33.0174 419.346 32.6892C418.829 32.3611 418.424 31.9021 418.133 31.3121C417.844 30.7221 417.7 30.0328 417.7 29.2439C417.7 28.4485 417.844 27.7541 418.133 27.1608C418.424 26.5676 418.829 26.1069 419.346 25.7787C419.866 25.4506 420.471 25.2865 421.161 25.2865C421.85 25.2865 422.453 25.4506 422.97 25.7787C423.491 26.1069 423.895 26.5676 424.183 27.1608C424.475 27.7541 424.621 28.4485 424.621 29.2439C424.621 30.0328 424.475 30.7221 424.183 31.3121C423.895 31.9021 423.491 32.3611 422.97 32.6892C422.453 33.0174 421.85 33.1814 421.161 33.1814ZM421.161 32.1275C421.684 32.1275 422.115 31.9932 422.453 31.7248C422.791 31.4563 423.041 31.1033 423.204 30.6658C423.366 30.2283 423.447 29.7543 423.447 29.2439C423.447 28.7335 423.366 28.2579 423.204 27.8171C423.041 27.3763 422.791 27.02 422.453 26.7482C422.115 26.4764 421.684 26.3405 421.161 26.3405C420.637 26.3405 420.206 26.4764 419.868 26.7482C419.53 27.02 419.28 27.3763 419.117 27.8171C418.955 28.2579 418.874 28.7335 418.874 29.2439C418.874 29.7543 418.955 30.2283 419.117 30.6658C419.28 31.1033 419.53 31.4563 419.868 31.7248C420.206 31.9932 420.637 32.1275 421.161 32.1275ZM432.079 33.0223L429.753 25.386H430.986L432.636 31.2326H432.716L434.346 25.386H435.599L437.21 31.2127H437.29L438.94 25.386H440.173L437.846 33.0223H436.693L435.023 27.1559H434.903L433.233 33.0223H432.079ZM444.666 33.1814C443.93 33.1814 443.296 33.019 442.762 32.6942C442.232 32.3661 441.822 31.9087 441.534 31.3221C441.249 30.7321 441.107 30.046 441.107 29.2638C441.107 28.4816 441.249 27.7922 441.534 27.1956C441.822 26.5957 442.223 26.1284 442.737 25.7936C443.254 25.4556 443.857 25.2865 444.547 25.2865C444.945 25.2865 445.337 25.3528 445.725 25.4854C446.113 25.618 446.466 25.8334 446.784 26.1317C447.102 26.4267 447.356 26.8178 447.545 27.305C447.734 27.7922 447.828 28.3921 447.828 29.1047V29.6019H441.942V28.5877H446.635C446.635 28.1568 446.549 27.7723 446.376 27.4343C446.207 27.0962 445.965 26.8294 445.651 26.6338C445.339 26.4383 444.971 26.3405 444.547 26.3405C444.08 26.3405 443.675 26.4565 443.334 26.6885C442.996 26.9172 442.736 27.2155 442.553 27.5834C442.371 27.9513 442.28 28.3457 442.28 28.7667V29.4428C442.28 30.0195 442.379 30.5084 442.578 30.9094C442.78 31.3071 443.06 31.6104 443.418 31.8192C443.776 32.0247 444.192 32.1275 444.666 32.1275C444.974 32.1275 445.253 32.0844 445.501 31.9982C445.753 31.9087 445.97 31.7761 446.153 31.6005C446.335 31.4215 446.476 31.1994 446.575 30.9343L447.709 31.2525C447.589 31.6369 447.389 31.975 447.107 32.2667C446.826 32.555 446.478 32.7804 446.063 32.9428C445.649 33.1019 445.183 33.1814 444.666 33.1814ZM68.2472 45.4286V50.0223H67.0739V42.386H68.2074V43.5792H68.3068C68.4858 43.1914 68.7576 42.8798 69.1222 42.6445C69.4867 42.4059 69.9574 42.2865 70.5341 42.2865C71.0511 42.2865 71.5036 42.3926 71.8913 42.6047C72.2791 42.8135 72.5807 43.1317 72.7962 43.5593C73.0116 43.9835 73.1193 44.5204 73.1193 45.1701V50.0223H71.946V45.2496C71.946 44.6497 71.7902 44.1824 71.4787 43.8476C71.1671 43.5096 70.7396 43.3405 70.196 43.3405C69.8215 43.3405 69.4867 43.4217 69.1918 43.5841C68.9001 43.7465 68.6697 43.9835 68.5007 44.2951C68.3317 44.6066 68.2472 44.9845 68.2472 45.4286ZM78.465 50.1814C77.7292 50.1814 77.0945 50.019 76.5609 49.6942C76.0306 49.3661 75.6213 48.9087 75.3329 48.3221C75.0479 47.7321 74.9054 47.046 74.9054 46.2638C74.9054 45.4816 75.0479 44.7922 75.3329 44.1956C75.6213 43.5957 76.0223 43.1284 76.536 42.7936C77.0531 42.4556 77.6563 42.2865 78.3457 42.2865C78.7434 42.2865 79.1362 42.3528 79.524 42.4854C79.9118 42.618 80.2647 42.8334 80.5829 43.1317C80.9011 43.4267 81.1547 43.8178 81.3436 44.305C81.5325 44.7922 81.627 45.3921 81.627 46.1047V46.6019H75.7406V45.5877H80.4338C80.4338 45.1568 80.3476 44.7723 80.1752 44.4343C80.0062 44.0962 79.7643 43.8294 79.4494 43.6338C79.1378 43.4383 78.7699 43.3405 78.3457 43.3405C77.8784 43.3405 77.474 43.4565 77.1326 43.6885C76.7946 43.9172 76.5344 44.2155 76.3521 44.5834C76.1698 44.9513 76.0787 45.3457 76.0787 45.7667V46.4428C76.0787 47.0195 76.1781 47.5084 76.377 47.9094C76.5791 48.3071 76.8592 48.6104 77.2172 48.8192C77.5751 49.0247 77.9911 49.1275 78.465 49.1275C78.7733 49.1275 79.0517 49.0844 79.3002 48.9982C79.5521 48.9087 79.7692 48.7761 79.9515 48.6005C80.1338 48.4215 80.2747 48.1994 80.3741 47.9343L81.5076 48.2525C81.3883 48.6369 81.1878 48.975 80.9061 49.2667C80.6243 49.555 80.2763 49.7804 79.862 49.9428C79.4477 50.1019 78.9821 50.1814 78.465 50.1814ZM86.6135 50.1814C85.8777 50.1814 85.243 50.019 84.7093 49.6942C84.179 49.3661 83.7697 48.9087 83.4814 48.3221C83.1963 47.7321 83.0538 47.046 83.0538 46.2638C83.0538 45.4816 83.1963 44.7922 83.4814 44.1956C83.7697 43.5957 84.1708 43.1284 84.6845 42.7936C85.2015 42.4556 85.8047 42.2865 86.4941 42.2865C86.8919 42.2865 87.2846 42.3528 87.6724 42.4854C88.0602 42.618 88.4132 42.8334 88.7314 43.1317C89.0495 43.4267 89.3031 43.8178 89.492 44.305C89.6809 44.7922 89.7754 45.3921 89.7754 46.1047V46.6019H83.889V45.5877H88.5822C88.5822 45.1568 88.496 44.7723 88.3237 44.4343C88.1547 44.0962 87.9127 43.8294 87.5978 43.6338C87.2863 43.4383 86.9184 43.3405 86.4941 43.3405C86.0268 43.3405 85.6225 43.4565 85.2811 43.6885C84.943 43.9172 84.6828 44.2155 84.5005 44.5834C84.3182 44.9513 84.2271 45.3457 84.2271 45.7667V46.4428C84.2271 47.0195 84.3265 47.5084 84.5254 47.9094C84.7276 48.3071 85.0076 48.6104 85.3656 48.8192C85.7235 49.0247 86.1395 49.1275 86.6135 49.1275C86.9217 49.1275 87.2001 49.0844 87.4487 48.9982C87.7006 48.9087 87.9177 48.7761 88.1 48.6005C88.2823 48.4215 88.4231 48.1994 88.5225 47.9343L89.6561 48.2525C89.5368 48.6369 89.3362 48.975 89.0545 49.2667C88.7728 49.555 88.4248 49.7804 88.0105 49.9428C87.5962 50.1019 87.1305 50.1814 86.6135 50.1814ZM94.4437 50.1814C93.8074 50.1814 93.2456 50.0207 92.7583 49.6992C92.2711 49.3744 91.89 48.917 91.6149 48.327C91.3398 47.7337 91.2022 47.0328 91.2022 46.224C91.2022 45.422 91.3398 44.7259 91.6149 44.136C91.89 43.546 92.2728 43.0903 92.7633 42.7688C93.2538 42.4473 93.8206 42.2865 94.4636 42.2865C94.9608 42.2865 95.3535 42.3694 95.6419 42.5351C95.9335 42.6975 96.1556 42.8831 96.3081 43.0919C96.4638 43.2974 96.5848 43.4665 96.671 43.599H96.7704V39.8405H97.9437V50.0223H96.8102V48.849H96.671C96.5848 48.9882 96.4622 49.1639 96.3031 49.376C96.144 49.5848 95.917 49.7721 95.622 49.9378C95.327 50.1002 94.9342 50.1814 94.4437 50.1814ZM94.6028 49.1275C95.0734 49.1275 95.4712 49.0048 95.796 48.7596C96.1208 48.511 96.3677 48.1679 96.5368 47.7304C96.7058 47.2896 96.7903 46.7809 96.7903 46.2042C96.7903 45.6341 96.7074 45.1353 96.5417 44.7077C96.376 44.2768 96.1307 43.9421 95.8059 43.7034C95.4811 43.4615 95.0801 43.3405 94.6028 43.3405C94.1056 43.3405 93.6913 43.4681 93.3599 43.7233C93.0318 43.9752 92.7849 44.3183 92.6191 44.7525C92.4567 45.1833 92.3755 45.6672 92.3755 46.2042C92.3755 46.7477 92.4584 47.2416 92.6241 47.6857C92.7931 48.1265 93.0417 48.4778 93.3699 48.7397C93.7013 48.9982 94.1123 49.1275 94.6028 49.1275ZM107.514 42.386V43.3803H103.557V42.386H107.514ZM104.71 40.5564H105.883V47.8348C105.883 48.1663 105.931 48.4149 106.028 48.5806C106.127 48.743 106.253 48.8524 106.405 48.9087C106.561 48.9617 106.725 48.9882 106.898 48.9882C107.027 48.9882 107.133 48.9816 107.216 48.9684C107.299 48.9518 107.365 48.9385 107.415 48.9286L107.653 49.9826C107.574 50.0124 107.463 50.0422 107.32 50.0721C107.178 50.1052 106.997 50.1218 106.778 50.1218C106.447 50.1218 106.122 50.0505 105.804 49.908C105.489 49.7655 105.227 49.5484 105.018 49.2567C104.813 48.965 104.71 48.5971 104.71 48.153V40.5564ZM112.299 50.1814C111.61 50.1814 111.005 50.0174 110.485 49.6892C109.968 49.3611 109.563 48.9021 109.271 48.3121C108.983 47.7221 108.839 47.0328 108.839 46.2439C108.839 45.4485 108.983 44.7541 109.271 44.1608C109.563 43.5676 109.968 43.1069 110.485 42.7787C111.005 42.4506 111.61 42.2865 112.299 42.2865C112.989 42.2865 113.592 42.4506 114.109 42.7787C114.629 43.1069 115.034 43.5676 115.322 44.1608C115.614 44.7541 115.759 45.4485 115.759 46.2439C115.759 47.0328 115.614 47.7221 115.322 48.3121C115.034 48.9021 114.629 49.3611 114.109 49.6892C113.592 50.0174 112.989 50.1814 112.299 50.1814ZM112.299 49.1275C112.823 49.1275 113.254 48.9932 113.592 48.7248C113.93 48.4563 114.18 48.1033 114.343 47.6658C114.505 47.2283 114.586 46.7543 114.586 46.2439C114.586 45.7335 114.505 45.2579 114.343 44.8171C114.18 44.3763 113.93 44.02 113.592 43.7482C113.254 43.4764 112.823 43.3405 112.299 43.3405C111.776 43.3405 111.345 43.4764 111.007 43.7482C110.669 44.02 110.418 44.3763 110.256 44.8171C110.093 45.2579 110.012 45.7335 110.012 46.2439C110.012 46.7543 110.093 47.2283 110.256 47.6658C110.418 48.1033 110.669 48.4563 111.007 48.7248C111.345 48.9932 111.776 49.1275 112.299 49.1275ZM126.897 44.0962L125.843 44.3945C125.777 44.2188 125.679 44.0481 125.55 43.8824C125.424 43.7134 125.251 43.5742 125.033 43.4648C124.814 43.3554 124.534 43.3007 124.192 43.3007C123.725 43.3007 123.336 43.4085 123.024 43.6239C122.716 43.836 122.562 44.1061 122.562 44.4343C122.562 44.7259 122.668 44.9563 122.88 45.1253C123.092 45.2944 123.424 45.4352 123.874 45.5479L125.008 45.8263C125.691 45.992 126.199 46.2456 126.534 46.587C126.869 46.925 127.036 47.3609 127.036 47.8945C127.036 48.332 126.91 48.7231 126.658 49.0678C126.41 49.4125 126.062 49.6843 125.614 49.8831C125.167 50.082 124.647 50.1814 124.053 50.1814C123.274 50.1814 122.63 50.0124 122.119 49.6743C121.609 49.3363 121.286 48.8424 121.15 48.1928L122.263 47.9144C122.37 48.3254 122.57 48.6336 122.865 48.8391C123.163 49.0446 123.553 49.1473 124.033 49.1473C124.58 49.1473 125.014 49.0313 125.336 48.7993C125.661 48.564 125.823 48.2823 125.823 47.9542C125.823 47.689 125.73 47.4669 125.545 47.288C125.359 47.1057 125.074 46.9698 124.69 46.8803L123.417 46.582C122.718 46.4163 122.204 46.1594 121.876 45.8114C121.551 45.4601 121.388 45.0209 121.388 44.4939C121.388 44.0631 121.509 43.6819 121.751 43.3505C121.997 43.019 122.33 42.7588 122.751 42.5699C123.175 42.381 123.656 42.2865 124.192 42.2865C124.948 42.2865 125.541 42.4523 125.972 42.7837C126.406 43.1151 126.715 43.5526 126.897 44.0962ZM129.976 45.4286V50.0223H128.802V39.8405H129.976V43.5792H130.075C130.254 43.1847 130.523 42.8715 130.881 42.6395C131.242 42.4042 131.722 42.2865 132.322 42.2865C132.843 42.2865 133.298 42.3909 133.689 42.5998C134.081 42.8052 134.384 43.1218 134.599 43.5493C134.818 43.9736 134.927 44.5138 134.927 45.1701V50.0223H133.754V45.2496C133.754 44.6431 133.597 44.1741 133.282 43.8427C132.97 43.5079 132.538 43.3405 131.984 43.3405C131.6 43.3405 131.255 43.4217 130.95 43.5841C130.648 43.7465 130.41 43.9835 130.234 44.2951C130.062 44.6066 129.976 44.9845 129.976 45.4286ZM140.176 50.1814C139.487 50.1814 138.882 50.0174 138.362 49.6892C137.844 49.3611 137.44 48.9021 137.148 48.3121C136.86 47.7221 136.716 47.0328 136.716 46.2439C136.716 45.4485 136.86 44.7541 137.148 44.1608C137.44 43.5676 137.844 43.1069 138.362 42.7787C138.882 42.4506 139.487 42.2865 140.176 42.2865C140.866 42.2865 141.469 42.4506 141.986 42.7787C142.506 43.1069 142.911 43.5676 143.199 44.1608C143.491 44.7541 143.636 45.4485 143.636 46.2439C143.636 47.0328 143.491 47.7221 143.199 48.3121C142.911 48.9021 142.506 49.3611 141.986 49.6892C141.469 50.0174 140.866 50.1814 140.176 50.1814ZM140.176 49.1275C140.7 49.1275 141.131 48.9932 141.469 48.7248C141.807 48.4563 142.057 48.1033 142.219 47.6658C142.382 47.2283 142.463 46.7543 142.463 46.2439C142.463 45.7335 142.382 45.2579 142.219 44.8171C142.057 44.3763 141.807 44.02 141.469 43.7482C141.131 43.4764 140.7 43.3405 140.176 43.3405C139.652 43.3405 139.222 43.4764 138.884 43.7482C138.545 44.02 138.295 44.3763 138.133 44.8171C137.97 45.2579 137.889 45.7335 137.889 46.2439C137.889 46.7543 137.97 47.2283 138.133 47.6658C138.295 48.1033 138.545 48.4563 138.884 48.7248C139.222 48.9932 139.652 49.1275 140.176 49.1275ZM146.898 50.0223L144.571 42.386H145.804L147.455 48.2326H147.534L149.165 42.386H150.418L152.028 48.2127H152.108L153.759 42.386H154.991L152.665 50.0223H151.511L149.841 44.1559H149.722L148.051 50.0223H146.898ZM161.236 52.886C161.037 52.886 160.86 52.8694 160.704 52.8363C160.548 52.8064 160.44 52.7766 160.381 52.7468L160.679 51.7127C160.964 51.7856 161.216 51.8121 161.435 51.7922C161.653 51.7723 161.847 51.6746 162.016 51.4989C162.189 51.3266 162.346 51.0465 162.489 50.6587L162.707 50.0621L159.884 42.386H161.156L163.264 48.4712H163.344L165.452 42.386H166.724L163.483 51.136C163.337 51.5304 163.156 51.8569 162.941 52.1154C162.726 52.3772 162.475 52.5711 162.19 52.6971C161.909 52.823 161.59 52.886 161.236 52.886ZM171.102 50.1814C170.413 50.1814 169.808 50.0174 169.287 49.6892C168.77 49.3611 168.366 48.9021 168.074 48.3121C167.786 47.7221 167.642 47.0328 167.642 46.2439C167.642 45.4485 167.786 44.7541 168.074 44.1608C168.366 43.5676 168.77 43.1069 169.287 42.7787C169.808 42.4506 170.413 42.2865 171.102 42.2865C171.791 42.2865 172.395 42.4506 172.912 42.7787C173.432 43.1069 173.836 43.5676 174.125 44.1608C174.416 44.7541 174.562 45.4485 174.562 46.2439C174.562 47.0328 174.416 47.7221 174.125 48.3121C173.836 48.9021 173.432 49.3611 172.912 49.6892C172.395 50.0174 171.791 50.1814 171.102 50.1814ZM171.102 49.1275C171.626 49.1275 172.056 48.9932 172.395 48.7248C172.733 48.4563 172.983 48.1033 173.145 47.6658C173.308 47.2283 173.389 46.7543 173.389 46.2439C173.389 45.7335 173.308 45.2579 173.145 44.8171C172.983 44.3763 172.733 44.02 172.395 43.7482C172.056 43.4764 171.626 43.3405 171.102 43.3405C170.578 43.3405 170.147 43.4764 169.809 43.7482C169.471 44.02 169.221 44.3763 169.059 44.8171C168.896 45.2579 168.815 45.7335 168.815 46.2439C168.815 46.7543 168.896 47.2283 169.059 47.6658C169.221 48.1033 169.471 48.4563 169.809 48.7248C170.147 48.9932 170.578 49.1275 171.102 49.1275ZM181.166 46.9002V42.386H182.339V50.0223H181.166V48.7297H181.086C180.907 49.1175 180.629 49.4473 180.251 49.7191C179.873 49.9875 179.396 50.1218 178.819 50.1218C178.342 50.1218 177.918 50.0174 177.546 49.8086C177.175 49.5964 176.883 49.2783 176.671 48.854C176.459 48.4265 176.353 47.8879 176.353 47.2382V42.386H177.526V47.1587C177.526 47.7155 177.682 48.1596 177.994 48.4911C178.309 48.8225 178.71 48.9882 179.197 48.9882C179.489 48.9882 179.785 48.9137 180.087 48.7645C180.392 48.6154 180.647 48.3867 180.852 48.0784C181.061 47.7702 181.166 47.3775 181.166 46.9002ZM191.746 42.386V43.3803H187.789V42.386H191.746ZM188.942 40.5564H190.116V47.8348C190.116 48.1663 190.164 48.4149 190.26 48.5806C190.359 48.743 190.485 48.8524 190.638 48.9087C190.794 48.9617 190.958 48.9882 191.13 48.9882C191.259 48.9882 191.365 48.9816 191.448 48.9684C191.531 48.9518 191.597 48.9385 191.647 48.9286L191.886 49.9826C191.806 50.0124 191.695 50.0422 191.553 50.0721C191.41 50.1052 191.229 50.1218 191.011 50.1218C190.679 50.1218 190.354 50.0505 190.036 49.908C189.721 49.7655 189.46 49.5484 189.251 49.2567C189.045 48.965 188.942 48.5971 188.942 48.153V40.5564ZM194.849 45.4286V50.0223H193.675V39.8405H194.849V43.5792H194.948C195.127 43.1847 195.396 42.8715 195.754 42.6395C196.115 42.4042 196.595 42.2865 197.195 42.2865C197.716 42.2865 198.171 42.3909 198.562 42.5998C198.954 42.8052 199.257 43.1218 199.472 43.5493C199.691 43.9736 199.8 44.5138 199.8 45.1701V50.0223H198.627V45.2496C198.627 44.6431 198.47 44.1741 198.155 43.8427C197.843 43.5079 197.411 43.3405 196.857 43.3405C196.473 43.3405 196.128 43.4217 195.823 43.5841C195.522 43.7465 195.283 43.9835 195.107 44.2951C194.935 44.6066 194.849 44.9845 194.849 45.4286ZM201.947 50.0223V42.386H203.12V50.0223H201.947ZM202.544 41.1132C202.315 41.1132 202.118 41.0354 201.952 40.8796C201.789 40.7238 201.708 40.5365 201.708 40.3178C201.708 40.099 201.789 39.9118 201.952 39.756C202.118 39.6002 202.315 39.5223 202.544 39.5223C202.772 39.5223 202.968 39.6002 203.13 39.756C203.296 39.9118 203.379 40.099 203.379 40.3178C203.379 40.5365 203.296 40.7238 203.13 40.8796C202.968 41.0354 202.772 41.1132 202.544 41.1132ZM210.678 44.0962L209.624 44.3945C209.558 44.2188 209.46 44.0481 209.331 43.8824C209.205 43.7134 209.033 43.5742 208.814 43.4648C208.595 43.3554 208.315 43.3007 207.974 43.3007C207.506 43.3007 207.117 43.4085 206.805 43.6239C206.497 43.836 206.343 44.1061 206.343 44.4343C206.343 44.7259 206.449 44.9563 206.661 45.1253C206.873 45.2944 207.205 45.4352 207.656 45.5479L208.789 45.8263C209.472 45.992 209.981 46.2456 210.315 46.587C210.65 46.925 210.817 47.3609 210.817 47.8945C210.817 48.332 210.692 48.7231 210.44 49.0678C210.191 49.4125 209.843 49.6843 209.396 49.8831C208.948 50.082 208.428 50.1814 207.835 50.1814C207.056 50.1814 206.411 50.0124 205.901 49.6743C205.39 49.3363 205.067 48.8424 204.931 48.1928L206.045 47.9144C206.151 48.3254 206.351 48.6336 206.646 48.8391C206.945 49.0446 207.334 49.1473 207.815 49.1473C208.362 49.1473 208.796 49.0313 209.117 48.7993C209.442 48.564 209.604 48.2823 209.604 47.9542C209.604 47.689 209.512 47.4669 209.326 47.288C209.14 47.1057 208.855 46.9698 208.471 46.8803L207.198 46.582C206.499 46.4163 205.985 46.1594 205.657 45.8114C205.332 45.4601 205.17 45.0209 205.17 44.4939C205.17 44.0631 205.291 43.6819 205.533 43.3505C205.778 43.019 206.111 42.7588 206.532 42.5699C206.956 42.381 207.437 42.2865 207.974 42.2865C208.729 42.2865 209.323 42.4523 209.754 42.7837C210.188 43.1151 210.496 43.5526 210.678 44.0962ZM221.334 46.9002V42.386H222.507V50.0223H221.334V48.7297H221.254C221.075 49.1175 220.797 49.4473 220.419 49.7191C220.041 49.9875 219.564 50.1218 218.987 50.1218C218.51 50.1218 218.086 50.0174 217.714 49.8086C217.343 49.5964 217.051 49.2783 216.839 48.854C216.627 48.4265 216.521 47.8879 216.521 47.2382V42.386H217.694V47.1587C217.694 47.7155 217.85 48.1596 218.162 48.4911C218.477 48.8225 218.878 48.9882 219.365 48.9882C219.657 48.9882 219.953 48.9137 220.255 48.7645C220.56 48.6154 220.815 48.3867 221.02 48.0784C221.229 47.7702 221.334 47.3775 221.334 46.9002ZM227.738 53.0451C227.172 53.0451 226.684 52.9721 226.277 52.8263C225.869 52.6838 225.529 52.4949 225.257 52.2596C224.989 52.0275 224.775 51.779 224.616 51.5138L225.551 50.8576C225.657 50.9968 225.791 51.1559 225.953 51.3348C226.116 51.5171 226.338 51.6746 226.62 51.8071C226.905 51.943 227.278 52.011 227.738 52.011C228.355 52.011 228.864 51.8618 229.265 51.5635C229.666 51.2652 229.866 50.7979 229.866 50.1615V48.6104H229.767C229.681 48.7496 229.558 48.922 229.399 49.1275C229.243 49.3296 229.018 49.5103 228.723 49.6694C228.431 49.8251 228.037 49.903 227.539 49.903C226.923 49.903 226.369 49.7572 225.879 49.4655C225.392 49.1739 225.006 48.7496 224.721 48.1928C224.439 47.636 224.298 46.9598 224.298 46.1644C224.298 45.3822 224.435 44.7011 224.711 44.1211C224.986 43.5377 225.368 43.087 225.859 42.7688C226.35 42.4473 226.916 42.2865 227.559 42.2865C228.056 42.2865 228.451 42.3694 228.743 42.5351C229.038 42.6975 229.263 42.8831 229.419 43.0919C229.578 43.2974 229.7 43.4665 229.787 43.599H229.906V42.386H231.039V50.2411C231.039 50.8973 230.89 51.431 230.592 51.8419C230.297 52.2562 229.899 52.5595 229.399 52.7517C228.902 52.9473 228.348 53.0451 227.738 53.0451ZM227.699 48.849C228.169 48.849 228.567 48.7413 228.892 48.5259C229.217 48.3105 229.463 48.0006 229.632 47.5962C229.801 47.1918 229.886 46.7079 229.886 46.1445C229.886 45.5943 229.803 45.1087 229.637 44.6878C229.472 44.2669 229.226 43.9371 228.902 43.6985C228.577 43.4598 228.176 43.3405 227.699 43.3405C227.201 43.3405 226.787 43.4665 226.456 43.7184C226.127 43.9703 225.881 44.3083 225.715 44.7326C225.552 45.1568 225.471 45.6275 225.471 46.1445C225.471 46.6748 225.554 47.1438 225.72 47.5515C225.889 47.9558 226.137 48.274 226.466 48.506C226.797 48.7347 227.208 48.849 227.699 48.849ZM234.36 39.8405V50.0223H233.187V39.8405H234.36ZM237.265 52.886C237.066 52.886 236.889 52.8694 236.733 52.8363C236.577 52.8064 236.47 52.7766 236.41 52.7468L236.708 51.7127C236.993 51.7856 237.245 51.8121 237.464 51.7922C237.683 51.7723 237.877 51.6746 238.046 51.4989C238.218 51.3266 238.375 51.0465 238.518 50.6587L238.737 50.0621L235.913 42.386H237.186L239.294 48.4712H239.373L241.481 42.386H242.754L239.512 51.136C239.366 51.5304 239.186 51.8569 238.97 52.1154C238.755 52.3772 238.505 52.5711 238.22 52.6971C237.938 52.823 237.62 52.886 237.265 52.886ZM249.413 39.8405V50.0223H248.24V39.8405H249.413ZM254.664 50.1814C253.975 50.1814 253.37 50.0174 252.85 49.6892C252.333 49.3611 251.928 48.9021 251.637 48.3121C251.348 47.7221 251.204 47.0328 251.204 46.2439C251.204 45.4485 251.348 44.7541 251.637 44.1608C251.928 43.5676 252.333 43.1069 252.85 42.7787C253.37 42.4506 253.975 42.2865 254.664 42.2865C255.354 42.2865 255.957 42.4506 256.474 42.7787C256.994 43.1069 257.399 43.5676 257.687 44.1608C257.979 44.7541 258.125 45.4485 258.125 46.2439C258.125 47.0328 257.979 47.7221 257.687 48.3121C257.399 48.9021 256.994 49.3611 256.474 49.6892C255.957 50.0174 255.354 50.1814 254.664 50.1814ZM254.664 49.1275C255.188 49.1275 255.619 48.9932 255.957 48.7248C256.295 48.4563 256.545 48.1033 256.708 47.6658C256.87 47.2283 256.951 46.7543 256.951 46.2439C256.951 45.7335 256.87 45.2579 256.708 44.8171C256.545 44.3763 256.295 44.02 255.957 43.7482C255.619 43.4764 255.188 43.3405 254.664 43.3405C254.141 43.3405 253.71 43.4764 253.372 43.7482C253.034 44.02 252.783 44.3763 252.621 44.8171C252.459 45.2579 252.377 45.7335 252.377 46.2439C252.377 46.7543 252.459 47.2283 252.621 47.6658C252.783 48.1033 253.034 48.4563 253.372 48.7248C253.71 48.9932 254.141 49.1275 254.664 49.1275ZM263.018 50.1814C262.329 50.1814 261.724 50.0174 261.203 49.6892C260.686 49.3611 260.282 48.9021 259.99 48.3121C259.702 47.7221 259.558 47.0328 259.558 46.2439C259.558 45.4485 259.702 44.7541 259.99 44.1608C260.282 43.5676 260.686 43.1069 261.203 42.7787C261.724 42.4506 262.329 42.2865 263.018 42.2865C263.707 42.2865 264.311 42.4506 264.828 42.7787C265.348 43.1069 265.752 43.5676 266.041 44.1608C266.332 44.7541 266.478 45.4485 266.478 46.2439C266.478 47.0328 266.332 47.7221 266.041 48.3121C265.752 48.9021 265.348 49.3611 264.828 49.6892C264.311 50.0174 263.707 50.1814 263.018 50.1814ZM263.018 49.1275C263.542 49.1275 263.972 48.9932 264.311 48.7248C264.649 48.4563 264.899 48.1033 265.061 47.6658C265.224 47.2283 265.305 46.7543 265.305 46.2439C265.305 45.7335 265.224 45.2579 265.061 44.8171C264.899 44.3763 264.649 44.02 264.311 43.7482C263.972 43.4764 263.542 43.3405 263.018 43.3405C262.494 43.3405 262.063 43.4764 261.725 43.7482C261.387 44.02 261.137 44.3763 260.975 44.8171C260.812 45.2579 260.731 45.7335 260.731 46.2439C260.731 46.7543 260.812 47.2283 260.975 47.6658C261.137 48.1033 261.387 48.4563 261.725 48.7248C262.063 48.9932 262.494 49.1275 263.018 49.1275ZM269.363 47.2382L269.343 45.7865H269.582L272.923 42.386H274.374L270.815 45.9854H270.715L269.363 47.2382ZM268.269 50.0223V39.8405H269.442V50.0223H268.269ZM273.121 50.0223L270.138 46.2439L270.974 45.4286L274.613 50.0223H273.121ZM275.884 50.0223V42.386H277.058V50.0223H275.884ZM276.481 41.1132C276.252 41.1132 276.055 41.0354 275.889 40.8796C275.727 40.7238 275.646 40.5365 275.646 40.3178C275.646 40.099 275.727 39.9118 275.889 39.756C276.055 39.6002 276.252 39.5223 276.481 39.5223C276.71 39.5223 276.905 39.6002 277.068 39.756C277.233 39.9118 277.316 40.099 277.316 40.3178C277.316 40.5365 277.233 40.7238 277.068 40.8796C276.905 41.0354 276.71 41.1132 276.481 41.1132ZM280.38 45.4286V50.0223H279.207V42.386H280.34V43.5792H280.44C280.619 43.1914 280.89 42.8798 281.255 42.6445C281.62 42.4059 282.09 42.2865 282.667 42.2865C283.184 42.2865 283.636 42.3926 284.024 42.6047C284.412 42.8135 284.714 43.1317 284.929 43.5593C285.144 43.9835 285.252 44.5204 285.252 45.1701V50.0223H284.079V45.2496C284.079 44.6497 283.923 44.1824 283.612 43.8476C283.3 43.5096 282.872 43.3405 282.329 43.3405C281.954 43.3405 281.62 43.4217 281.325 43.5841C281.033 43.7465 280.803 43.9835 280.634 44.2951C280.464 44.6066 280.38 44.9845 280.38 45.4286ZM290.479 53.0451C289.912 53.0451 289.425 52.9721 289.017 52.8263C288.609 52.6838 288.269 52.4949 287.998 52.2596C287.729 52.0275 287.515 51.779 287.356 51.5138L288.291 50.8576C288.397 50.9968 288.531 51.1559 288.694 51.3348C288.856 51.5171 289.078 51.6746 289.36 51.8071C289.645 51.943 290.018 52.011 290.479 52.011C291.095 52.011 291.604 51.8618 292.005 51.5635C292.406 51.2652 292.606 50.7979 292.606 50.1615V48.6104H292.507C292.421 48.7496 292.298 48.922 292.139 49.1275C291.983 49.3296 291.758 49.5103 291.463 49.6694C291.171 49.8251 290.777 49.903 290.28 49.903C289.663 49.903 289.11 49.7572 288.619 49.4655C288.132 49.1739 287.746 48.7496 287.461 48.1928C287.179 47.636 287.038 46.9598 287.038 46.1644C287.038 45.3822 287.176 44.7011 287.451 44.1211C287.726 43.5377 288.109 43.087 288.599 42.7688C289.09 42.4473 289.657 42.2865 290.3 42.2865C290.797 42.2865 291.191 42.3694 291.483 42.5351C291.778 42.6975 292.003 42.8831 292.159 43.0919C292.318 43.2974 292.441 43.4665 292.527 43.599H292.646V42.386H293.78V50.2411C293.78 50.8973 293.631 51.431 293.332 51.8419C293.037 52.2562 292.64 52.5595 292.139 52.7517C291.642 52.9473 291.088 53.0451 290.479 53.0451ZM290.439 48.849C290.909 48.849 291.307 48.7413 291.632 48.5259C291.957 48.3105 292.204 48.0006 292.373 47.5962C292.542 47.1918 292.626 46.7079 292.626 46.1445C292.626 45.5943 292.543 45.1087 292.378 44.6878C292.212 44.2669 291.967 43.9371 291.642 43.6985C291.317 43.4598 290.916 43.3405 290.439 43.3405C289.942 43.3405 289.527 43.4665 289.196 43.7184C288.868 43.9703 288.621 44.3083 288.455 44.7326C288.293 45.1568 288.211 45.6275 288.211 46.1445C288.211 46.6748 288.294 47.1438 288.46 47.5515C288.629 47.9558 288.878 48.274 289.206 48.506C289.537 48.7347 289.948 48.849 290.439 48.849ZM302.967 50.1814C302.251 50.1814 301.635 50.0124 301.118 49.6743C300.601 49.3363 300.203 48.8706 299.925 48.2773C299.646 47.684 299.507 47.0062 299.507 46.2439C299.507 45.4684 299.649 44.7839 299.934 44.1907C300.223 43.5941 300.624 43.1284 301.138 42.7936C301.655 42.4556 302.258 42.2865 302.947 42.2865C303.484 42.2865 303.968 42.386 304.399 42.5848C304.83 42.7837 305.183 43.0621 305.458 43.4201C305.733 43.778 305.904 44.1956 305.97 44.6729H304.797C304.707 44.3249 304.508 44.0167 304.2 43.7482C303.895 43.4764 303.484 43.3405 302.967 43.3405C302.51 43.3405 302.109 43.4598 301.764 43.6985C301.423 43.9338 301.156 44.2669 300.964 44.6978C300.775 45.1253 300.68 45.6275 300.68 46.2042C300.68 46.7941 300.773 47.3079 300.959 47.7454C301.148 48.1829 301.413 48.5226 301.754 48.7645C302.099 49.0065 302.503 49.1275 302.967 49.1275C303.272 49.1275 303.549 49.0744 303.797 48.9684C304.046 48.8623 304.256 48.7098 304.429 48.511C304.601 48.3121 304.724 48.0735 304.797 47.7951H305.97C305.904 48.2458 305.74 48.6518 305.478 49.0131C305.219 49.3711 304.876 49.6561 304.449 49.8682C304.024 50.077 303.531 50.1814 302.967 50.1814ZM310.787 50.1814C310.098 50.1814 309.493 50.0174 308.973 49.6892C308.456 49.3611 308.051 48.9021 307.76 48.3121C307.471 47.7221 307.327 47.0328 307.327 46.2439C307.327 45.4485 307.471 44.7541 307.76 44.1608C308.051 43.5676 308.456 43.1069 308.973 42.7787C309.493 42.4506 310.098 42.2865 310.787 42.2865C311.477 42.2865 312.08 42.4506 312.597 42.7787C313.117 43.1069 313.522 43.5676 313.81 44.1608C314.102 44.7541 314.248 45.4485 314.248 46.2439C314.248 47.0328 314.102 47.7221 313.81 48.3121C313.522 48.9021 313.117 49.3611 312.597 49.6892C312.08 50.0174 311.477 50.1814 310.787 50.1814ZM310.787 49.1275C311.311 49.1275 311.742 48.9932 312.08 48.7248C312.418 48.4563 312.668 48.1033 312.831 47.6658C312.993 47.2283 313.074 46.7543 313.074 46.2439C313.074 45.7335 312.993 45.2579 312.831 44.8171C312.668 44.3763 312.418 44.02 312.08 43.7482C311.742 43.4764 311.311 43.3405 310.787 43.3405C310.264 43.3405 309.833 43.4764 309.495 43.7482C309.157 44.02 308.907 44.3763 308.744 44.8171C308.582 45.2579 308.501 45.7335 308.501 46.2439C308.501 46.7543 308.582 47.2283 308.744 47.6658C308.907 48.1033 309.157 48.4563 309.495 48.7248C309.833 48.9932 310.264 49.1275 310.787 49.1275ZM319.141 50.1814C318.452 50.1814 317.847 50.0174 317.326 49.6892C316.809 49.3611 316.405 48.9021 316.113 48.3121C315.825 47.7221 315.681 47.0328 315.681 46.2439C315.681 45.4485 315.825 44.7541 316.113 44.1608C316.405 43.5676 316.809 43.1069 317.326 42.7787C317.847 42.4506 318.452 42.2865 319.141 42.2865C319.83 42.2865 320.434 42.4506 320.951 42.7787C321.471 43.1069 321.875 43.5676 322.164 44.1608C322.455 44.7541 322.601 45.4485 322.601 46.2439C322.601 47.0328 322.455 47.7221 322.164 48.3121C321.875 48.9021 321.471 49.3611 320.951 49.6892C320.434 50.0174 319.83 50.1814 319.141 50.1814ZM319.141 49.1275C319.665 49.1275 320.096 48.9932 320.434 48.7248C320.772 48.4563 321.022 48.1033 321.184 47.6658C321.347 47.2283 321.428 46.7543 321.428 46.2439C321.428 45.7335 321.347 45.2579 321.184 44.8171C321.022 44.3763 320.772 44.02 320.434 43.7482C320.096 43.4764 319.665 43.3405 319.141 43.3405C318.617 43.3405 318.186 43.4764 317.848 43.7482C317.51 44.02 317.26 44.3763 317.098 44.8171C316.935 45.2579 316.854 45.7335 316.854 46.2439C316.854 46.7543 316.935 47.2283 317.098 47.6658C317.26 48.1033 317.51 48.4563 317.848 48.7248C318.186 48.9932 318.617 49.1275 319.141 49.1275ZM325.486 47.2382L325.466 45.7865H325.705L329.046 42.386H330.497L326.938 45.9854H326.838L325.486 47.2382ZM324.392 50.0223V39.8405H325.566V50.0223H324.392ZM329.244 50.0223L326.262 46.2439L327.097 45.4286L330.736 50.0223H329.244ZM332.007 50.0223V42.386H333.181V50.0223H332.007ZM332.604 41.1132C332.375 41.1132 332.178 41.0354 332.012 40.8796C331.85 40.7238 331.769 40.5365 331.769 40.3178C331.769 40.099 331.85 39.9118 332.012 39.756C332.178 39.6002 332.375 39.5223 332.604 39.5223C332.833 39.5223 333.028 39.6002 333.191 39.756C333.356 39.9118 333.439 40.099 333.439 40.3178C333.439 40.5365 333.356 40.7238 333.191 40.8796C333.028 41.0354 332.833 41.1132 332.604 41.1132ZM338.531 50.1814C337.796 50.1814 337.161 50.019 336.627 49.6942C336.097 49.3661 335.688 48.9087 335.399 48.3221C335.114 47.7321 334.972 47.046 334.972 46.2638C334.972 45.4816 335.114 44.7922 335.399 44.1956C335.688 43.5957 336.089 43.1284 336.602 42.7936C337.119 42.4556 337.723 42.2865 338.412 42.2865C338.81 42.2865 339.203 42.3528 339.59 42.4854C339.978 42.618 340.331 42.8334 340.649 43.1317C340.968 43.4267 341.221 43.8178 341.41 44.305C341.599 44.7922 341.693 45.3921 341.693 46.1047V46.6019H335.807V45.5877H340.5C340.5 45.1568 340.414 44.7723 340.242 44.4343C340.073 44.0962 339.831 43.8294 339.516 43.6338C339.204 43.4383 338.836 43.3405 338.412 43.3405C337.945 43.3405 337.54 43.4565 337.199 43.6885C336.861 43.9172 336.601 44.2155 336.419 44.5834C336.236 44.9513 336.145 45.3457 336.145 45.7667V46.4428C336.145 47.0195 336.244 47.5084 336.443 47.9094C336.646 48.3071 336.926 48.6104 337.284 48.8192C337.642 49.0247 338.057 49.1275 338.531 49.1275C338.84 49.1275 339.118 49.0844 339.367 48.9982C339.619 48.9087 339.836 48.7761 340.018 48.6005C340.2 48.4215 340.341 48.1994 340.441 47.9343L341.574 48.2525C341.455 48.6369 341.254 48.975 340.972 49.2667C340.691 49.555 340.343 49.7804 339.928 49.9428C339.514 50.1019 339.048 50.1814 338.531 50.1814ZM347.575 50.0223V39.8405H348.748V43.599H348.847C348.934 43.4665 349.053 43.2974 349.205 43.0919C349.361 42.8831 349.583 42.6975 349.872 42.5351C350.163 42.3694 350.558 42.2865 351.055 42.2865C351.698 42.2865 352.265 42.4473 352.755 42.7688C353.246 43.0903 353.628 43.546 353.904 44.136C354.179 44.7259 354.316 45.422 354.316 46.224C354.316 47.0328 354.179 47.7337 353.904 48.327C353.628 48.917 353.247 49.3744 352.76 49.6992C352.273 50.0207 351.711 50.1814 351.075 50.1814C350.584 50.1814 350.191 50.1002 349.896 49.9378C349.602 49.7721 349.374 49.5848 349.215 49.376C349.056 49.1639 348.934 48.9882 348.847 48.849H348.708V50.0223H347.575ZM348.728 46.2042C348.728 46.7809 348.813 47.2896 348.982 47.7304C349.151 48.1679 349.398 48.511 349.722 48.7596C350.047 49.0048 350.445 49.1275 350.916 49.1275C351.406 49.1275 351.816 48.9982 352.144 48.7397C352.475 48.4778 352.724 48.1265 352.889 47.6857C353.058 47.2416 353.143 46.7477 353.143 46.2042C353.143 45.6672 353.06 45.1833 352.894 44.7525C352.732 44.3183 352.485 43.9752 352.154 43.7233C351.825 43.4681 351.413 43.3405 350.916 43.3405C350.438 43.3405 350.037 43.4615 349.713 43.7034C349.388 43.9421 349.142 44.2768 348.977 44.7077C348.811 45.1353 348.728 45.6341 348.728 46.2042ZM358.358 50.2013C357.874 50.2013 357.435 50.1102 357.041 49.9279C356.646 49.7423 356.333 49.4755 356.101 49.1275C355.869 48.7761 355.753 48.3519 355.753 47.8547C355.753 47.4172 355.839 47.0626 356.012 46.7908C356.184 46.5157 356.414 46.3003 356.703 46.1445C356.991 45.9887 357.309 45.8727 357.657 45.7965C358.008 45.7169 358.361 45.654 358.716 45.6076C359.18 45.5479 359.556 45.5032 359.845 45.4733C360.136 45.4402 360.348 45.3855 360.481 45.3093C360.617 45.233 360.685 45.1005 360.685 44.9115V44.8718C360.685 44.3812 360.551 44.0001 360.282 43.7283C360.017 43.4565 359.614 43.3206 359.074 43.3206C358.514 43.3206 358.075 43.4433 357.757 43.6885C357.438 43.9338 357.215 44.1956 357.085 44.474L355.972 44.0763C356.171 43.6123 356.436 43.251 356.767 42.9925C357.102 42.7307 357.467 42.5484 357.861 42.4456C358.259 42.3396 358.65 42.2865 359.034 42.2865C359.28 42.2865 359.561 42.3164 359.879 42.376C360.201 42.4324 360.511 42.55 360.809 42.729C361.111 42.908 361.361 43.1781 361.56 43.5394C361.759 43.9007 361.858 44.3846 361.858 44.9911V50.0223H360.685V48.9882H360.625C360.546 49.154 360.413 49.3313 360.227 49.5202C360.042 49.7091 359.795 49.8699 359.487 50.0025C359.178 50.135 358.802 50.2013 358.358 50.2013ZM358.537 49.1473C359.001 49.1473 359.392 49.0562 359.71 48.8739C360.032 48.6916 360.274 48.4563 360.436 48.1679C360.602 47.8796 360.685 47.5763 360.685 47.2581V46.1843C360.635 46.2439 360.526 46.2986 360.357 46.3483C360.191 46.3947 359.999 46.4362 359.78 46.4726C359.565 46.5058 359.354 46.5356 359.149 46.5621C358.946 46.5853 358.782 46.6052 358.656 46.6218C358.352 46.6615 358.066 46.7262 357.801 46.8157C357.539 46.9018 357.327 47.0328 357.165 47.2084C357.006 47.3808 356.926 47.6161 356.926 47.9144C356.926 48.3221 357.077 48.6303 357.379 48.8391C357.684 49.0446 358.07 49.1473 358.537 49.1473ZM365.173 45.4286V50.0223H364V42.386H365.133V43.5792H365.233C365.412 43.1914 365.683 42.8798 366.048 42.6445C366.413 42.4059 366.883 42.2865 367.46 42.2865C367.977 42.2865 368.429 42.3926 368.817 42.6047C369.205 42.8135 369.507 43.1317 369.722 43.5593C369.937 43.9835 370.045 44.5204 370.045 45.1701V50.0223H368.872V45.2496C368.872 44.6497 368.716 44.1824 368.404 43.8476C368.093 43.5096 367.665 43.3405 367.122 43.3405C366.747 43.3405 366.413 43.4217 366.118 43.5841C365.826 43.7465 365.596 43.9835 365.426 44.2951C365.257 44.6066 365.173 44.9845 365.173 45.4286ZM373.362 45.4286V50.0223H372.189V42.386H373.323V43.5792H373.422C373.601 43.1914 373.873 42.8798 374.237 42.6445C374.602 42.4059 375.073 42.2865 375.649 42.2865C376.166 42.2865 376.619 42.3926 377.007 42.6047C377.394 42.8135 377.696 43.1317 377.911 43.5593C378.127 43.9835 378.235 44.5204 378.235 45.1701V50.0223H377.061V45.2496C377.061 44.6497 376.905 44.1824 376.594 43.8476C376.282 43.5096 375.855 43.3405 375.311 43.3405C374.937 43.3405 374.602 43.4217 374.307 43.5841C374.015 43.7465 373.785 43.9835 373.616 44.2951C373.447 44.6066 373.362 44.9845 373.362 45.4286ZM383.58 50.1814C382.844 50.1814 382.21 50.019 381.676 49.6942C381.146 49.3661 380.737 48.9087 380.448 48.3221C380.163 47.7321 380.021 47.046 380.021 46.2638C380.021 45.4816 380.163 44.7922 380.448 44.1956C380.737 43.5957 381.138 43.1284 381.651 42.7936C382.168 42.4556 382.772 42.2865 383.461 42.2865C383.859 42.2865 384.251 42.3528 384.639 42.4854C385.027 42.618 385.38 42.8334 385.698 43.1317C386.016 43.4267 386.27 43.8178 386.459 44.305C386.648 44.7922 386.742 45.3921 386.742 46.1047V46.6019H380.856V45.5877H385.549C385.549 45.1568 385.463 44.7723 385.29 44.4343C385.121 44.0962 384.879 43.8294 384.565 43.6338C384.253 43.4383 383.885 43.3405 383.461 43.3405C382.994 43.3405 382.589 43.4565 382.248 43.6885C381.91 43.9172 381.65 44.2155 381.467 44.5834C381.285 44.9513 381.194 45.3457 381.194 45.7667V46.4428C381.194 47.0195 381.293 47.5084 381.492 47.9094C381.694 48.3071 381.974 48.6104 382.332 48.8192C382.69 49.0247 383.106 49.1275 383.58 49.1275C383.888 49.1275 384.167 49.0844 384.415 48.9982C384.667 48.9087 384.884 48.7761 385.067 48.6005C385.249 48.4215 385.39 48.1994 385.489 47.9343L386.623 48.2525C386.504 48.6369 386.303 48.975 386.021 49.2667C385.74 49.555 385.392 49.7804 384.977 49.9428C384.563 50.1019 384.097 50.1814 383.58 50.1814ZM388.527 50.0223V42.386H389.661V43.5394H389.74C389.879 43.1615 390.131 42.855 390.496 42.6196C390.86 42.3843 391.271 42.2667 391.729 42.2667C391.815 42.2667 391.923 42.2683 392.052 42.2716C392.181 42.2749 392.279 42.2799 392.345 42.2865V43.4797C392.305 43.4698 392.214 43.4549 392.072 43.435C391.933 43.4118 391.785 43.4002 391.629 43.4002C391.258 43.4002 390.927 43.4781 390.635 43.6338C390.347 43.7863 390.118 43.9984 389.949 44.2702C389.783 44.5387 389.7 44.8453 389.7 45.19V50.0223H388.527ZM393.716 50.1019C393.471 50.1019 393.26 50.0141 393.085 49.8384C392.909 49.6627 392.821 49.4523 392.821 49.207C392.821 48.9617 392.909 48.7513 393.085 48.5756C393.26 48.3999 393.471 48.3121 393.716 48.3121C393.961 48.3121 394.172 48.3999 394.347 48.5756C394.523 48.7513 394.611 48.9617 394.611 49.207C394.611 49.3694 394.57 49.5186 394.487 49.6544C394.407 49.7903 394.299 49.8997 394.164 49.9826C394.031 50.0621 393.882 50.1019 393.716 50.1019Z" fill="#242832"/>
<rect x="331.5" y="66.5223" width="74" height="27" rx="7.5" fill="white"/>
<path d="M350.933 84.0223H348.107V75.2951H351.022C351.877 75.2951 352.612 75.4698 353.225 75.8192C353.839 76.1658 354.309 76.6644 354.636 77.315C354.965 77.9627 355.13 78.7397 355.13 79.6459C355.13 80.555 354.964 81.3363 354.631 81.9897C354.302 82.6431 353.825 83.1459 353.2 83.4982C352.575 83.8476 351.819 84.0223 350.933 84.0223ZM349.424 82.8718H350.86C351.525 82.8718 352.077 82.7468 352.518 82.4968C352.958 82.2439 353.288 81.8789 353.506 81.4016C353.725 80.9215 353.835 80.3363 353.835 79.6459C353.835 78.9613 353.725 78.3803 353.506 77.903C353.29 77.4257 352.968 77.0635 352.539 76.8164C352.11 76.5692 351.577 76.4456 350.941 76.4456H349.424V82.8718ZM359.486 84.1544C358.841 84.1544 358.286 84.0167 357.82 83.7411C357.357 83.4627 356.999 83.0721 356.746 82.5692C356.496 82.0635 356.371 81.4712 356.371 80.7922C356.371 80.1218 356.496 79.5309 356.746 79.0195C356.999 78.5081 357.351 78.109 357.803 77.8221C358.257 77.5351 358.789 77.3917 359.397 77.3917C359.766 77.3917 360.124 77.4527 360.471 77.5749C360.817 77.6971 361.128 77.8888 361.404 78.1502C361.679 78.4115 361.897 78.751 362.056 79.1686C362.215 79.5834 362.294 80.0877 362.294 80.6814V81.1331H357.091V80.1786H361.046C361.046 79.8434 360.978 79.5465 360.841 79.288C360.705 79.0266 360.513 78.8206 360.266 78.6701C360.022 78.5195 359.735 78.4442 359.405 78.4442C359.047 78.4442 358.735 78.5323 358.468 78.7084C358.203 78.8817 357.999 79.109 357.854 79.3902C357.712 79.6686 357.641 79.9712 357.641 80.2979V81.0436C357.641 81.4811 357.718 81.8533 357.871 82.1601C358.027 82.4669 358.245 82.7013 358.523 82.8632C358.801 83.0223 359.127 83.1019 359.499 83.1019C359.74 83.1019 359.961 83.0678 360.159 82.9996C360.358 82.9286 360.53 82.8235 360.675 82.6843C360.82 82.5451 360.931 82.3732 361.007 82.1686L362.213 82.386C362.117 82.7411 361.944 83.0522 361.694 83.3192C361.446 83.5834 361.135 83.7894 360.76 83.9371C360.388 84.082 359.963 84.1544 359.486 84.1544ZM366.465 84.1544C365.832 84.1544 365.286 84.011 364.829 83.724C364.374 83.4343 364.025 83.0351 363.781 82.5266C363.536 82.0181 363.414 81.4357 363.414 80.7794C363.414 80.1147 363.539 79.528 363.789 79.0195C364.039 78.5081 364.391 78.109 364.846 77.8221C365.3 77.5351 365.836 77.3917 366.452 77.3917C366.95 77.3917 367.393 77.484 367.782 77.6686C368.171 77.8505 368.485 78.1061 368.724 78.4357C368.965 78.7652 369.109 79.1502 369.154 79.5905H367.914C367.846 79.2837 367.69 79.0195 367.445 78.7979C367.204 78.5763 366.88 78.4655 366.474 78.4655C366.119 78.4655 365.808 78.5593 365.54 78.7468C365.276 78.9314 365.07 79.1956 364.923 79.5394C364.775 79.8803 364.701 80.2837 364.701 80.7496C364.701 81.2269 364.773 81.6388 364.918 81.9854C365.063 82.332 365.268 82.6005 365.532 82.7908C365.799 82.9811 366.113 83.0763 366.474 83.0763C366.715 83.0763 366.934 83.0323 367.13 82.9442C367.329 82.8533 367.495 82.724 367.629 82.5564C367.765 82.3888 367.86 82.1871 367.914 81.9513H369.154C369.109 82.3746 368.971 82.7525 368.741 83.0848C368.511 83.4172 368.202 83.6786 367.816 83.8689C367.433 84.0593 366.982 84.1544 366.465 84.1544ZM371.791 75.2951V84.0223H370.517V75.2951H371.791ZM373.505 84.0223V77.4769H374.779V84.0223H373.505ZM374.148 76.4669C373.927 76.4669 373.737 76.3931 373.577 76.2453C373.421 76.0948 373.343 75.9158 373.343 75.7084C373.343 75.4982 373.421 75.3192 373.577 75.1715C373.737 75.0209 373.927 74.9456 374.148 74.9456C374.37 74.9456 374.559 75.0209 374.715 75.1715C374.874 75.3192 374.954 75.4982 374.954 75.7084C374.954 75.9158 374.874 76.0948 374.715 76.2453C374.559 76.3931 374.37 76.4669 374.148 76.4669ZM377.767 80.136V84.0223H376.493V77.4769H377.716V78.5422H377.797C377.948 78.1956 378.184 77.9172 378.505 77.707C378.828 77.4968 379.236 77.3917 379.728 77.3917C380.174 77.3917 380.564 77.4854 380.9 77.6729C381.235 77.8576 381.495 78.1331 381.679 78.4996C381.864 78.8661 381.956 79.3192 381.956 79.859V84.0223H380.682V80.0124C380.682 79.538 380.559 79.1672 380.311 78.9002C380.064 78.6303 379.725 78.4954 379.293 78.4954C378.998 78.4954 378.735 78.5593 378.505 78.6871C378.277 78.815 378.097 79.0025 377.963 79.2496C377.833 79.4939 377.767 79.7894 377.767 80.136ZM386.486 84.1544C385.841 84.1544 385.286 84.0167 384.82 83.7411C384.357 83.4627 383.999 83.0721 383.746 82.5692C383.496 82.0635 383.371 81.4712 383.371 80.7922C383.371 80.1218 383.496 79.5309 383.746 79.0195C383.999 78.5081 384.351 78.109 384.803 77.8221C385.257 77.5351 385.789 77.3917 386.397 77.3917C386.766 77.3917 387.124 77.4527 387.471 77.5749C387.817 77.6971 388.128 77.8888 388.404 78.1502C388.679 78.4115 388.897 78.751 389.056 79.1686C389.215 79.5834 389.294 80.0877 389.294 80.6814V81.1331H384.091V80.1786H388.046C388.046 79.8434 387.978 79.5465 387.841 79.288C387.705 79.0266 387.513 78.8206 387.266 78.6701C387.022 78.5195 386.735 78.4442 386.405 78.4442C386.047 78.4442 385.735 78.5323 385.468 78.7084C385.203 78.8817 384.999 79.109 384.854 79.3902C384.712 79.6686 384.641 79.9712 384.641 80.2979V81.0436C384.641 81.4811 384.718 81.8533 384.871 82.1601C385.027 82.4669 385.245 82.7013 385.523 82.8632C385.801 83.0223 386.127 83.1019 386.499 83.1019C386.74 83.1019 386.961 83.0678 387.159 82.9996C387.358 82.9286 387.53 82.8235 387.675 82.6843C387.82 82.5451 387.931 82.3732 388.007 82.1686L389.213 82.386C389.117 82.7411 388.944 83.0522 388.694 83.3192C388.446 83.5834 388.135 83.7894 387.76 83.9371C387.388 84.082 386.963 84.1544 386.486 84.1544Z" fill="#1C1E27"/>
<rect x="331.5" y="66.5223" width="74" height="27" rx="7.5" stroke="#E5E7EB"/>
<rect x="416" y="66.0223" width="64" height="28" rx="8" fill="#1C1E27"/>
<path d="M434.04 84.0223H432.642L435.783 75.2951H437.304L440.445 84.0223H439.047L436.58 76.8803H436.511L434.04 84.0223ZM434.274 80.6047H438.808V81.7127H434.274V80.6047ZM442.877 75.2951V84.0223H441.603V75.2951H442.877ZM445.865 75.2951V84.0223H444.591V75.2951H445.865ZM450.336 84.1544C449.723 84.1544 449.187 84.0138 448.73 83.7326C448.272 83.4513 447.917 83.0579 447.664 82.5522C447.412 82.0465 447.285 81.4556 447.285 80.7794C447.285 80.1005 447.412 79.5067 447.664 78.9982C447.917 78.4897 448.272 78.0948 448.73 77.8135C449.187 77.5323 449.723 77.3917 450.336 77.3917C450.95 77.3917 451.485 77.5323 451.943 77.8135C452.4 78.0948 452.755 78.4897 453.008 78.9982C453.261 79.5067 453.387 80.1005 453.387 80.7794C453.387 81.4556 453.261 82.0465 453.008 82.5522C452.755 83.0579 452.4 83.4513 451.943 83.7326C451.485 84.0138 450.95 84.1544 450.336 84.1544ZM450.341 83.0848C450.738 83.0848 451.068 82.9797 451.329 82.7695C451.591 82.5593 451.784 82.2794 451.909 81.93C452.037 81.5806 452.1 81.1956 452.1 80.7752C452.1 80.3576 452.037 79.974 451.909 79.6246C451.784 79.2723 451.591 78.9897 451.329 78.7766C451.068 78.5635 450.738 78.457 450.341 78.457C449.94 78.457 449.608 78.5635 449.343 78.7766C449.082 78.9897 448.887 79.2723 448.76 79.6246C448.635 79.974 448.572 80.3576 448.572 80.7752C448.572 81.1956 448.635 81.5806 448.76 81.93C448.887 82.2794 449.082 82.5593 449.343 82.7695C449.608 82.9797 449.94 83.0848 450.341 83.0848ZM456.029 84.0223L454.103 77.4769H455.42L456.703 82.2837H456.767L458.054 77.4769H459.37L460.649 82.2624H460.713L461.987 77.4769H463.304L461.382 84.0223H460.082L458.752 79.2965H458.654L457.325 84.0223H456.029Z" fill="white"/>
</svg>
